<?xml version="1.0" standalone="no"?>
<!DOCTYPE svg PUBLIC "-//W3C//DTD SVG 1.1//EN" "http://www.w3.org/Graphics/SVG/1.1/DTD/svg11.dtd" >
<!--
2013-9-30: Created.
-->
<svg>
<metadata>
Created by iconfont
</metadata>
<defs>

<font id="iconfont" horiz-adv-x="1024" >
  <font-face
    font-family="iconfont"
    font-weight="500"
    font-stretch="normal"
    units-per-em="1024"
    ascent="896"
    descent="-128"
  />
    <missing-glyph />
    
    <glyph glyph-name="yingyong" unicode="&#58880;" d="M359.16618261 754.3801223q24.16263281 0 41.35527562-16.72797657t17.19264281-40.89061031l0-232.33301062q0-24.16263281-17.19264281-41.35527563t-41.35527562-17.19264281l-232.33301063 0q-24.16263281 0-40.89061031 17.19264281t-16.72797656 41.35527563l0 232.33301062q0 24.16263281 16.72797656 40.89061031t40.89061031 16.72797657l232.33301063 0zM359.16618261 289.71410104999995q24.16263281 0 41.35527562-16.72797657t17.19264281-40.89061031l0-233.26234312q0-24.16263281-17.19264281-40.89061032t-41.35527562-16.72797656l-232.33301063 0q-24.16263281 0-40.89061031 16.72797656t-16.72797656 40.89061032l0 233.26234312q0 24.16263281 16.72797656 40.89061031t40.89061031 16.72797657l232.33301063 0zM824.76153636 289.71410104999995q24.16263281 0 40.89061031-16.72797657t16.72797656-40.89061031l0-233.26234312q0-24.16263281-16.72797656-40.89061032t-40.89061031-16.72797656l-232.33301063 0q-24.16263281 0-41.35527562 16.72797656t-17.19264281 40.89061032l0 233.26234312q0 24.16263281 17.19264281 40.89061031t41.35527562 16.72797657l232.33301063 0zM953.93869011 652.15359792q18.58664063-18.58664063 18.58664062-43.67860594t-18.58664062-42.74927437l-172.85575969-172.85575969q-18.58664063-18.58664063-43.21393969-18.58664063t-43.21393968 18.58664063l-172.85575969 172.85575969q-17.65730906 17.65730906-17.65730906 42.74927437t17.65730906 43.67860594l172.85575969 172.85575969q18.58664063 17.65730906 43.21393968 17.65730906t43.21393969-17.65730906z"  horiz-adv-x="1026" />

    
    <glyph glyph-name="jiesuo" unicode="&#58892;" d="M737.22343555 834q42.89970234 0 82.67130088-16.08738838t70.60575937-44.24031738 49.60278018-65.69016856 18.76861933-80.43694101l0-132.27408105-108.14299893 0 0 107.24925497q0 56.30585888-31.72790477 87.5868917t-85.35253184 31.28103281q-48.26216513 0-77.75571006-31.28103281t-29.49354492-87.5868917l0-109.03674287-112.61171778 0 0 134.06156895q0 42.89970234 16.98113233 80.43694101t46.92154922 65.69016856 70.60575937 44.24031738 88.92750762 16.08738838zM735.43594854 224.46673299999998l0-76.8619661 0-42.00595841q0-24.13108213-8.49056573-45.58093329t-23.23733906-36.64349561-34.85600771-24.13108212-44.24031739-8.9374377l-452.23435986 0q-24.13108213 0-43.79344629 8.49056572t-33.96226377 23.23733906-21.89672314 34.40913574-7.59682266 42.0059584l0 284.21052628q0 25.02482607 17.4280043 42.00595839t40.66534248 16.98113232l553.2274081 0q25.02482607 0 42.00595841-16.98113232t16.98113232-42.00595839l0-158.19265109z"  horiz-adv-x="1024" />

    
    <glyph glyph-name="tree" unicode="&#58881;" d="M798.85258965 390.27490019q1.79282901-7.17131513 4.48207207-15.23904345l3.58565713-14.3426294q1.79282901-7.17131513 1.79282901-11.65338632 0-25.09960166-13.44621534-44.37251016t-34.96015898-28.23705176q-8.0677292-0.89641406-17.03187247-0.89641406-7.17131513-0.89641406-16.13545839-0.89641406l-17.03187247 0-139.84063769-1.79282901 0-149.70119502q0-33.16733086 1.3446211-66.78286875t3.1374501-60.50796855q1.79282901-32.27091592 4.48207206-61.85258965l-129.08366542 0 2.68924306 34.96015898q0.89641406 20.61752959 1.792829 56.02589649t0.89641406 94.57171348l0 137.15139462q-15.23904346-13.44621533-34.06374492-13.44621532-15.23904346 0-26.44422275 7.17131513t-18.37649444 19.72111553l-101.2948207 5.37848613q-29.58167373 7.17131513-49.30278925 30.02988076t-19.72111554 54.23306748q0 5.37848613 0.89641407 9.8605582t2.68924307 8.96414326l22.41035859 51.99203145q1.79282901 19.72111552 11.2051793 36.75298799t23.75497968 29.58167373l140.73705177 260.85657393 0.89641406-1e-8q17.03187246 31.37450185 40.33864511 53.78486046t60.05976065 22.41035859q32.27091592 0 57.81872549-17.03187246t38.09760996-44.82071719l112.94820703-221.41434287q30.47808779-10.75697227 50.19920332-37.64940205t19.72111553-61.85258965q0-14.3426294-4.48207208-30.4780878z"  horiz-adv-x="1024" />

    
    <glyph glyph-name="shouqikuaijin" unicode="&#58953;" d="M937.950749 354.12150599999995L522.51132-60.651103000000035c-14.947023-14.94641-39.186046-14.94641-54.152513 0-14.947023 14.94641-14.947023 39.129182 0 54.076616l391.256689 390.590859L468.357784 774.625652c-14.947023 14.909571-14.947023 39.129182 0 54.058197 14.966466 14.929014 39.20549 14.929014 54.152513 0l415.439429-414.754189c8.234882-8.215102 11.49834-19.175735 10.681708-29.912263C949.449089 373.278821 946.185632 362.319212 937.950749 354.12150599999995zM489.111284 384.016373c0.815608-10.737552-2.429428-21.697161-10.663287-29.894867L139.582638 15.78986999999995c-14.948046-14.909571-39.20549-14.909571-54.152513 0-14.966466 14.947434-14.966466 39.167045 0 54.077639l314.680572 314.148863L85.429102 698.165236c-14.966466 14.927991-14.966466 39.129182 0 54.058197 14.947023 14.929014 39.20549 14.929014 54.152513 0l338.864335-338.293773C486.681856 405.713534 489.926893 394.752902 489.111284 384.016373z"  horiz-adv-x="1024" />

    
    <glyph glyph-name="msnui-home" unicode="&#58944;" d="M946.862 409.93l-404.183 404.165c-8.055 8.056-18.636 12.035-29.193 11.953-10.556 0.083-21.139-3.897-29.192-11.953l-404.183-404.165c-15.946-15.945-15.946-41.79 0-57.735 7.957-7.956 18.379-11.94 28.809-11.954v-0.138h40.457c22.344 0 40.457-18.119 40.457-40.461v-283.182c0-44.688 36.227-80.909 80.914-80.909h121.367c44.688 0 80.914 36.222 80.914 80.909v121.366c0 22.335 18.112 40.449 40.455 40.449 22.344 0 40.457-18.113 40.457-40.449v-121.366c0-44.688 36.227-80.909 80.912-80.909h121.369c44.686 0 80.912 36.222 80.912 80.909v283.182c0 22.341 18.112 40.461 40.457 40.461h40.457v0.138c10.43 0.015 20.854 3.999 28.811 11.955 15.947 15.944 15.947 41.789 0.001 57.734zM756.225 340.103v-283.19c0-22.345-18.112-40.453-40.457-40.453h-40.457c-22.342 0-40.457 18.107-40.457 40.453v121.362c0 44.688-36.227 80.913-80.912 80.913h-80.911c-44.688 0-80.914-36.226-80.914-80.913v-121.362c0-22.345-18.112-40.453-40.457-40.453h-40.457c-22.342 0-40.455 18.107-40.455 40.453v283.19c0 39.424-28.216 72.252-65.556 79.431l308.295 308.28 308.294-308.28c-37.34-7.178-65.556-40.006-65.556-79.431z"  horiz-adv-x="1024" />

    
    <glyph glyph-name="msnui-user" unicode="&#59043;" d="M510.848 384.71786667c121.61066667 0 220.1952 98.60053333 220.1952 220.20693333 0 121.58293333-98.58346667 220.16213333-220.1952 220.16213333-121.6096 0-220.19306667-98.5792-220.19306667-220.16213333 0-121.6064 98.58346667-220.20693333 220.19306667-220.20693333zM551.6384 274.60266666999996h-85.3216c-121.61066667 0-432.56853333-98.5792-432.56853333-220.18346667s98.58346667-104.5824 220.19306666-104.5824h513.8144c121.6096 0 220.19306667-17.02293333 220.19306667 104.5824s-314.69866667 220.18346667-436.30933333 220.18346667z"  horiz-adv-x="1024" />

    
    <glyph glyph-name="Share" unicode="&#58943;" d="M832.032 96c-46.848 0-87.36-25.408-109.696-62.912l-405.792 222.080c2.816 10.528 4.768 21.408 4.768 32.8 0 5.632-0.96 11.008-1.664 16.448l418.368 214.624c23.392-25.472 56.672-41.728 94.016-41.728 70.688 0 128 57.312 128 128s-57.312 128-128 128c-70.72 0-128.032-57.312-128.032-128 0-10.336 1.568-20.224 3.84-29.824l-412.096-211.392c-23.36 31.328-60.352 51.904-102.4 51.904-70.688 0-128-57.312-128-128s57.312-128 128-128c36.192 0 68.736 15.168 92 39.328l418.88-229.216c-0.032-0.736-0.224-1.408-0.224-2.112 0-70.688 57.312-128 128.032-128 70.688 0 128 57.312 128 128s-57.312 128-128 128zM832.032 669.344c35.328 0 64-28.672 64-64s-28.672-64-64-64c-35.328 0-64.032 28.672-64.032 64s28.672 64 64.032 64zM193.344 224c-35.328 0-64 28.672-64 64s28.672 64 64 64 64-28.672 64-64-28.672-64-64-64zM832.032-96c-35.36 0-64.032 28.64-64.032 64 0 35.328 28.672 64 64.032 64 35.328 0 64-28.672 64-64 0-35.36-28.704-64-64-64z"  horiz-adv-x="1024" />

    
    <glyph glyph-name="loupanxiangcezuoshangjiaotubiao" unicode="&#58893;" d="M127.43693369 767.44512393c-34.59234638 0-62.71358028-28.12123388-62.71358027-62.6722084l0-625.89914034c0-34.55097451 28.12123388-62.66951016 62.71358027-62.66951016l771.91334297 0c34.55097451 0 62.63083652 28.11853565 62.63083652 62.66951016L961.98111318 704.77291553c0 34.55097451-28.07986201 62.6722084-62.63083652 62.6722084L127.43693369 767.44512393zM127.4747082 704.69287002l771.76584317 0 0-384.01263984L748.3327666 462.88551592c-7.66190567 7.20771328-19.57432852 7.04582315-27.07794141-0.26801806L556.94792568 302.91097821999995 327.01701816 536.5878457c-3.71897842 3.77114326-8.81222519 5.96475615-14.13571641 5.92338428-5.27942021-0.06835342-10.33489336-2.18012168-14.02599023-6.03041133 0 0-169.09345459-177.70601513-170.61612188-179.28264638-0.30938994 0.24103653-0.46858271 0.45419238-0.76448144 0.56121943C127.4747082 360.52771435 127.4747082 704.69287002 127.4747082 704.69287002zM127.4747082 282.41117724000003L313.3768669 477.76682607l266.37149971-270.72814657c3.6749083-3.69109776 8.65033506-5.77498448 13.86499921-5.81635635 5.16160019-0.04137188 10.22786543 2.00474121 13.90547197 5.64367323l8.34364336 8.23481719c7.70327753 7.60974082 7.78242393 19.97635605 0.19966465 27.70751426l-23.33198057 23.73400811 142.57763263 138.57984317 163.93185438-154.46487305 0-171.70078711L127.4747082 78.95651982000004 127.4747082 282.41117724000003zM543.14948076 469.12908223c50.3433668 0 91.17928037 40.83591357 91.17928038 91.19277158 0 50.35415977-40.83591357 91.17928037-91.17928038 91.17928037-50.32987646 0-91.16578916-40.8251206-91.16578915-91.17928037C451.98369073 509.9649958 492.8196043 469.12908223 543.14948076 469.12908223z"  horiz-adv-x="1024" />

    
    <glyph glyph-name="good" unicode="&#58883;" d="M646.050 735.927c63.722 0 89.551-42.44 89.551-111.927-2.711-83.625-25.216-166.87-60.721-242.48 49.877-4.809 100.191-3.702 150.241-3.76 84.391 0 134.326-34.977 134.326-100.732 0.641-26.67-13.994-48.561-34.95-63.921l0.64-0.905c18.189-41.272 16.82-81.789-23.028-111.023l0.643-0.904c18.189-41.243 16.82-81.789-23.002-111.024l0.613-0.904c12.594-34.978 9.795-19.033 11.923-47.102 0-61.123-45.271-100.734-111.909-100.734l-134.325 0c-74.014 0-158.521 7.054-233.321 18.246-19.299 3.178-38.595 6.12-57.718 10.232v-6.093c0-12.357-10.028-22.385-22.388-22.385l-246.264-0c-12.358 0-22.387 10.027-22.387 22.385l0 537.248c0 12.358 10.028 22.386 22.387 22.386h246.264c12.359 0 22.388-10.027 22.388-22.386v-3.848c49.089 29.614 85.003 76.541 120.886 120.234 9.387 12.534 18.337 26.262 27.256 41.623 12.593 21.743 54.482 107.351 65.122 124.373 21.047 33.693 44.019 53.398 77.774 53.398zM108.747 377.76v-492.477h201.487v492.477h-201.487zM646.050 691.155c-44.777 0-67.164-111.926-134.326-201.468-41.394-56.809-91.299-105.134-150.299-143.523l-6.413-2.973v-427.623c95.089-23.347 193.589-26.67 291.039-30.285 0 0 89.551 0 134.325 0 44.746 0 67.134 22.385 67.134 55.964 0 33.577-22.389 33.577-22.389 55.963 0 22.385 44.776 22.385 44.776 55.963 0 33.578-22.387 33.578-22.387 55.964 0 22.384 44.775 22.384 44.775 55.963 0 33.577-22.388 33.577-22.388 55.963 0 22.385 44.776 22.385 44.776 55.964 0 33.578-22.388 55.963-89.552 55.963-156.684 0-223.847 0-201.458 44.77 24.4 48.793 67.163 156.698 67.163 246.239-0 44.775-9.737 67.159-44.775 67.159z"  horiz-adv-x="1024" />

    
    <glyph glyph-name="xingcheng" unicode="&#58918;" d="M295.04 354.24L295.04 354.24c9.6-12.48 19.2-24 29.76-34.56L512 126.72000000000003l189.12 194.88c16.32 17.28 26.88 32.64 26.88 32.64l-0.96 0c34.56 48 54.72 107.52 54.72 171.84C782.72 684.48 661.76 813.12 512 813.12c-149.76 0-270.72-128.64-270.72-287.04C241.28 460.8 261.44 402.24 295.04 354.24L295.04 354.24zM512 668.16c70.08 0 125.76-56.64 125.76-126.72 0-70.08-56.64-126.72-125.76-126.72-70.08 0-125.76 56.64-125.76 126.72C385.28 611.52 441.92 668.16 512 668.16zM872.96 162.24c-28.8 0-54.72-13.44-71.04-35.52L625.28 126.72000000000003c-1.92 3.84-4.8 8.64-6.72 12.48-20.16-20.16-39.36-39.36-53.76-54.72 0.96-3.84 0.96-7.68 0.96-11.52 0-29.76-24-54.72-53.76-54.72-29.76 0-53.76 24.96-53.76 54.72 0 9.6 2.88 19.2 7.68 26.88-13.44 18.24-31.68 36.48-49.92 53.76-6.72-8.64-12.48-17.28-17.28-26.88L222.08 126.72000000000003c-16.32 21.12-42.24 35.52-71.04 35.52-49.92 0-90.24-40.32-90.24-90.24 0-49.92 40.32-90.24 90.24-90.24 29.76 0 55.68 14.4 72 36.48l174.72 0c20.16-42.24 63.36-72 114.24-72 49.92 0 93.12 29.76 114.24 72l175.68 0c16.32-22.08 42.24-36.48 72-36.48 49.92 0 90.24 40.32 90.24 90.24C963.2 121.91999999999996 922.88 162.24 872.96 162.24zM152 19.200000000000045c-28.8 0-54.72 24-54.72 52.8s24.96 54.72 54.72 54.72c28.8 0 52.8-24.96 52.8-54.72S180.8 19.200000000000045 152 19.200000000000045zM873.92 19.200000000000045c-28.8 0-54.72 24-54.72 52.8s24.96 54.72 54.72 54.72c28.8 0 52.8-24.96 52.8-54.72S902.72 19.200000000000045 873.92 19.200000000000045z"  horiz-adv-x="1024" />

    
    <glyph glyph-name="bofang" unicode="&#59031;" d="M512-210.72C230.4-210.72 1.312 18.368 1.312 300 1.312 581.6 230.4 810.688 512 810.688 793.6 810.688 1022.688 581.6 1022.688 300 1022.688 18.368 793.6-210.72 512-210.72zM512 746.688C265.696 746.688 65.312 546.304 65.312 300c0-246.304 200.384-446.72 446.688-446.72 246.336 0 446.688 200.416 446.688 446.72C958.688 546.304 758.304 746.688 512 746.688zM336 537.504 753.312 300 336 62.496ZM336 46.496c-2.784 0-5.568 0.704-8.032 2.144C323.008 51.52 320 56.8 320 62.496L320 537.504c0 5.696 3.04 10.976 7.968 13.824 4.928 2.88 11.008 2.88 15.968 0.064l417.344-237.504c4.992-2.848 8.096-8.16 8.096-13.92s-3.104-11.072-8.096-13.92l-417.312-237.504C341.44 47.2 338.72 46.496 336 46.496zM352 509.984l0-419.968L720.96 300 352 509.984z"  horiz-adv-x="1024" />

    
    <glyph glyph-name="unie604" unicode="&#59090;" d="M680.8625 834c-155.334375 0-281.25-125.94375-281.25-281.25 0-36.140625 7.565625-70.340625 20.053125-102.065625l-341.690625-341.6625c-9.871875-9.9-15.975-19.29375-15.975-34.396875l0-84.375c0-30.09375 26.128125-56.25 56.25-56.25l84.375 0c15.075 0 24.609375 6.046875 34.48125 15.8625l40.359375 40.3875 65.896875 0c31.05 0 56.25 25.2 56.25 56.25l0 56.25 56.25 0c31.05 0 56.25 25.2 56.25 56.25l0 65.925 66.628125 66.684375c31.753125-12.515625 65.925-20.109375 102.121875-20.109375 155.278125 0 281.25 125.94375 281.25 281.25s-125.971875 281.25-281.25 281.25zM680.8625 327.75c-41.625 0-80.2125 12.09375-113.653125 31.8375l-9.675-9.646875-85.21875-85.246875c-10.546875-10.546875-16.48125-24.834375-16.48125-39.76875l0-65.925-56.25 0c-31.05 0-56.25-25.171875-56.25-56.25l0-56.25-65.86875 0c-14.90625 0-29.221875-5.934375-39.76875-16.48125l-39.88125-39.88125-79.48125 0.1125-0.084375 80.15625 328.078125 327.4875c0 0 0-0.028125 0.028125-0.05625l41.315625 41.315625c-19.74375 33.440625-31.8375 72-31.8375 113.625 0 124.25625 100.771875 225 225 225s225-100.74375 225-225-100.715625-225.028125-224.971875-225.028125zM844.4375 602.278125c-31.528125 43.93125-69.91875 82.265625-114.046875 114.01875-7.171875 5.203125-16.453125 6.496875-24.80625 3.571875-39.065625-13.753125-65.8125-40.471875-79.48125-79.5375-1.040625-2.925-1.546875-5.9625-1.546875-8.971875 0-5.596875 1.74375-11.1375 5.11875-15.834375 31.640625-43.9875 69.975-82.35 113.990625-113.990625 7.2-5.175 16.425-6.496875 24.778125-3.6 39.121875 13.66875 65.86875 40.44375 79.59375 79.5375 1.040625 2.925 1.546875 5.9625 1.546875 8.971875-0.028125 5.596875-1.8 11.1375-5.146875 15.834375zM760.0625 524.34375c-41.56875 29.896875-77.765625 66.09375-107.4375 106.678125 10.884375 31.021875 31.246875 51.384375 61.36875 62.465625 41.596875-29.953125 77.7375-66.065625 107.325-107.184375-10.996875-30.796875-31.303125-51.046875-61.25625-61.959375z"  horiz-adv-x="1025" />

    
    <glyph glyph-name="quancha" unicode="&#58911;" d="M512 834C264.5 834 62 631.5 62 384s202.5-450 450-450c247.5 0 450 202.5 450 450S759.5 834 512 834zM512 9.000292380000019C301.99970762 9.000292380000019 137.00029238 173.99970761999998 137.00029238 384S301.99970762 758.99970762 512 758.99970762 886.99970762 594.00029238 886.99970762 384 722.00029238 9.000292380000019 512 9.000292380000019zM699.50029238 571.50029238c-14.99970762 14.99970762-37.50058565 14.99970762-52.50029238 1e-8L512 436.50029239l-135 134.99999999c-14.99970762 14.99970762-37.49970761 14.99970762-52.49941435 1e-8-14.99970762-14.99970762-14.99970762-37.49970761 0-52.49941437L459.49970761 384l-134.99999999-135c-14.99970762-14.99970762-14.99970762-37.50058565-1e-8-52.50029239 14.99970762-14.99970762 37.49970761-14.99970762 52.49941437 0L512 331.50058564999995l135-135.00087803c14.99970762-14.99970762 37.50058565-14.99970762 52.50029239 0s14.99970762 37.50058565 0 52.50029238L564.49941435 384l135.00087803 135C714.5 533.99970762 714.5 556.49970762 699.50029238 571.50029238z"  horiz-adv-x="1024" />

    
    <glyph glyph-name="tuxiangguanli" unicode="&#58966;" d="M986.074074 622.37037 986.074074 774.125433C986.074074 795.093763 969.038031 812 948.023006 812L38.051068 812C17.115162 812 0 795.042979 0 774.125433L0 91.356048C0 70.387718 17.036043 53.481481 38.051068 53.481481L75.851852 53.481481 75.851852 622.37037 986.074074 622.37037ZM113.777778 812 227.555556 812 341.333333 698.222222 227.555556 698.222222 113.777778 812ZM379.259259 812 493.037037 812 606.814815 698.222222 493.037037 698.222222 379.259259 812ZM644.740741 812 758.518519 812 872.296296 698.222222 758.518519 698.222222 644.740741 812ZM227.555556 508.643952 227.555556 508.643952 227.555556-174.125433C227.555556-153.089432 210.519544-136.148148 189.754772-136.148148L1099.72671-136.148148C1078.901087-136.148148 1061.925926-153.020336 1061.925926-174.125433L1061.925926 508.643952C1061.925926 487.60795 1078.961937 470.666667 1099.72671 470.666667L189.754772 470.666667C210.580395 470.666667 227.555556 487.538855 227.555556 508.643952L227.555556 508.643952ZM151.703704 508.643952C151.703704 529.561498 168.818866 546.518519 189.754772 546.518519L1099.72671 546.518519C1120.741734 546.518519 1137.777778 529.612282 1137.777778 508.643952L1137.777778-174.125433C1137.777778-195.042979 1120.662615-212 1099.72671-212L189.754772-212C168.739747-212 151.703704-195.093764 151.703704-174.125433L151.703704 508.643952 151.703704 508.643952ZM341.333333-41.333333 512 337.925926 701.62963 72.444444 853.333333 148.296296 948.148148-41.333333 341.333333-41.333333ZM824.888889 205.185185C861.544232 205.185185 891.259259 234.900213 891.259259 271.555556 891.259259 308.210898 861.544232 337.925926 824.888889 337.925926 788.233546 337.925926 758.518519 308.210898 758.518519 271.555556 758.518519 234.900213 788.233546 205.185185 824.888889 205.185185Z"  horiz-adv-x="1138" />

    
    <glyph glyph-name="cha" unicode="&#58906;" d="M938.12963555-21.08529778000002c-31.96700445-31.96700445-84.03171555-31.96700445-116.07153777 0L86.81699555 714.15580444c-31.96700445 32.03982222-32.03982222 84.03171555 0 116.07153778 31.89418667 32.03982222 83.95889778 32.03982222 116.14435556 0l735.16828444-735.16828445C970.09664 62.87359999 970.24227555 10.95452444 938.12963555-21.08529778000002L938.12963555-21.08529778000002zM937.25582222 714.5198933199999L202.08753778-20.648391110000034c-32.11264-32.11264-84.10453333-32.11264-116.14435556 0-32.03982222 31.96700445-32.03982222 83.88608 0.07281778 116.07153777L821.18428445 830.51861332c32.11264 32.03982222 84.17735111 32.03982222 116.07153777 0.07281778C969.36846222 798.55160889 969.22282667 746.55971555 937.25582222 714.5198933199999L937.25582222 714.5198933199999z"  horiz-adv-x="1024" />

    
    <glyph glyph-name="quxiao" unicode="&#58978;" d="M511.2125 834C263.11249971 834 62 632.8875002899999 62 384.7875c0-248.10000029 201.11249971-449.2125 449.2125-449.2125 248.10000029 0 449.2125 201.13125029 449.2125 449.2125C960.425 632.8875002899999 759.31250029 834 511.2125 834zM511.2125 44.30624999999998c-188.06249971 0-340.51875029 152.4375-340.51875029 340.49999971 0 188.04375 152.4375 340.49999971 340.51875029 340.4999997 188.04375 0 340.48125-152.4375 340.48125-340.4999997C851.69375 196.74374999999998 699.25625 44.30624999999998 511.2125 44.30624999999998zM269.80624971 426.26249971l482.81249971 0 0-85.1437503-482.81249971 1e-8 0 85.14375029Z"  horiz-adv-x="1024" />

    
    <glyph glyph-name="biaoge" unicode="&#59286;" d="M813.87500029 834L210.12499971 834C128.44999971 834 62 767.5500002900001 62 685.87500029l0-603.71250029C62 0.4499997100000428 128.44999971-66 210.12499971-66l603.7499997 0c81.675 0 148.12499971 66.44999971 148.12499971 148.1625L962 685.87500029C962 767.5500002900001 895.55000029 834 813.87500029 834zM342.31249971 402.74999971L99.50000029 402.74999971l0 178.12500029 242.81250029 0L342.31249971 402.74999971zM379.8125 580.875L924.49999971 580.875 924.49999971 402.74999971 379.8125 402.74999971 379.8125 580.875zM99.50000029 365.25000029l242.81250029 0 0-178.14375L99.50000029 187.10625029000005 99.50000029 365.25000029zM379.8125 365.25000029L924.49999971 365.25000029l0-178.14375L379.8125 187.10625029000005 379.8125 365.25000029zM924.49999971 685.87500029l0-67.5L379.8125 618.37500029 379.8125 793.68749971c0 0.99375029-0.41249971 1.85625-0.5625 2.8125L813.87500029 796.49999971C874.88749971 796.49999971 924.49999971 746.8874997099999 924.49999971 685.87500029zM210.12499971 796.49999971l132.76874971 0c-0.15000029-0.95625-0.5625-1.81874971-0.5625-2.8125l0-175.31250029L99.50000029 618.37500029 99.50000029 685.87500029C99.50000029 746.8874997099999 149.11250029 796.49999971 210.12499971 796.49999971zM99.50000029 82.16250000000002l0 67.44375 242.81250029 0 0-175.29374971c0-1.0125 0.41249971-1.87499971 0.5625-2.8125L210.12499971-28.499999709999997C149.11250029-28.499999709999997 99.50000029 21.112500289999957 99.50000029 82.16250000000002zM813.87500029-28.499999709999997L379.25-28.499999709999997c0.15000029 0.95625 0.5625 1.81874971 0.5625 2.8125l0 175.29374971L924.49999971 149.60625000000005l0-67.44375C924.49999971 21.112500289999957 874.88749971-28.499999709999997 813.87500029-28.499999709999997z"  horiz-adv-x="1024" />

    
    <glyph glyph-name="logo9" unicode="&#58999;" d="M0.024 715.695v-678.74l1023.951 0v678.74h-1023.951zM511.999 296.534l-419.972 368.815h839.944l-419.972-368.815zM344.696 376.444l-294.325-258.473v516.944l294.325-258.471zM382.85 342.935l129.137-113.403 129.149 113.403 291.093-255.631h-840.472l291.093 255.631zM679.278 376.432l294.35 258.483v-516.943l-294.35 258.46z"  horiz-adv-x="1024" />

    
    <glyph glyph-name="bdgj" unicode="&#59287;" d="M919.53574033 102.63566484l-140.5297204 0L779.00601993 313.42844765999996l98.37080419 0L877.37682412 749.07148154l-505.90699541 0 2e-8-42.15891621-84.31783244 0 0 84.31783243c0 23.27531924 18.88359697 42.15891621 42.15891621 42.1589162l590.22482783 0c23.27531924 0 42.15891621-18.88359697 42.15891621-42.1589162l0-646.43761495C961.69465742 121.51746357000002 942.81106045 102.63566484 919.53574033 102.63566484zM736.84710372 622.5956320299999l-1e-8-646.43761494c0-23.27531924-18.88179785-42.15801709-42.15891621-42.15801709L104.46335967-66c-23.27531924 0-42.15891621 18.88269786-42.15891621 42.15801709L62.30444346 622.5956320299999c0 23.27531924 18.88359697 42.15891621 42.15891621 42.15891622l590.22482783 0C717.96350674 664.75454825 736.84710372 645.87005214 736.84710372 622.5956320299999zM652.52927129 580.43671582l-505.90699541 0 0-435.64303389 505.90699541 0L652.52927129 580.43671582z"  horiz-adv-x="1024" />

    
    <glyph glyph-name="jiaochacross80" unicode="&#58992;" d="M685.57727305 181.5L714.5 210.42272694999997 540.92272695 384 714.5 557.57727305 685.57727305 586.5 512 412.92272695 338.42272695 586.5 309.5 557.57727305 483.07727305 384 309.5 210.42272694999997 338.42272695 181.5 512 355.07727305000003ZM962 384c0 248.52272695-201.47727305 450-450 450C263.47727305 834 62 632.52272695 62 384c0-248.52272695 201.47727305-450 450-450C760.52272695-66 962 135.47727305 962 384zM102.90909131 384C102.90909131 609.94090869 286.05909131 793.09090869 512 793.09090869s409.09090869-183.15 409.09090869-409.09090869-183.15-409.09090869-409.09090869-409.09090869S102.90909131 158.05909130999999 102.90909131 384z"  horiz-adv-x="1024" />

    
    <glyph glyph-name="iconset0358" unicode="&#59137;" d="M896 725.333333c0 70.4-172.8 128-384 128S128 795.733333 128 725.333333l0-170.666667c0-14.933333 8.533333-29.866667 21.333333-42.666667-14.933333-12.8-21.333333-27.733333-21.333333-42.666667l0-170.666667c0-14.933333 8.533333-29.866667 21.333333-42.666667-14.933333-12.8-21.333333-27.733333-21.333333-42.666667l0-170.666667c0-70.4 172.8-128 384-128s384 57.6 384 128l0 170.666667c0 14.933333-8.533333 29.866667-21.333333 42.666667 14.933333 12.8 21.333333 27.733333 21.333333 42.666667l0 170.666667c0 14.933333-8.533333 29.866667-21.333333 42.666667 14.933333 12.8 21.333333 27.733333 21.333333 42.666667L896 725.333333zM853.333333 100.266667 853.333333 42.666667c0-46.933333-153.6-85.333333-341.333333-85.333333S170.666667-4.266667 170.666667 42.666667l0 57.6 0 53.333333c64-40.533333 192-70.4 341.333333-70.4 149.333333 0 277.333333 27.733333 341.333333 70.4L853.333333 100.266667zM512 128c-187.733333 0-341.333333 38.4-341.333333 85.333333 0 6.4 4.266667 14.933333 10.666667 21.333333 66.133333-38.4 189.866667-64 330.666667-64s264.533333 25.6 330.666667 64c6.4-6.4 10.666667-12.8 10.666667-21.333333C853.333333 166.4 699.733333 128 512 128zM853.333333 356.266667 853.333333 298.666667c0-46.933333-153.6-85.333333-341.333333-85.333333S170.666667 251.733333 170.666667 298.666667l0 57.6 0 53.333333c64-40.533333 192-70.4 341.333333-70.4 149.333333 0 277.333333 27.733333 341.333333 70.4L853.333333 356.266667zM512 384c-187.733333 0-341.333333 38.4-341.333333 85.333333 0 6.4 4.266667 14.933333 10.666667 21.333333 66.133333-38.4 189.866667-64 330.666667-64s264.533333 25.6 330.666667 64c6.4-6.4 10.666667-12.8 10.666667-21.333333C853.333333 422.4 699.733333 384 512 384zM853.333333 612.266667 853.333333 554.666667c0-46.933333-153.6-85.333333-341.333333-85.333333S170.666667 507.733333 170.666667 554.666667l0 57.6 0 53.333333c64-40.533333 192-70.4 341.333333-70.4 149.333333 0 277.333333 27.733333 341.333333 70.4L853.333333 612.266667zM512 640c-187.733333 0-341.333333 38.4-341.333333 85.333333s153.6 85.333333 341.333333 85.333333 341.333333-38.4 341.333333-85.333333S699.733333 640 512 640z"  horiz-adv-x="1024" />

    
    <glyph glyph-name="xiugai" unicode="&#58960;" d="M930.841 688.519l-113.544 113.561c-17.050 17.070-39.718 26.471-63.829 26.471-24.103 0-46.771-9.394-63.836-26.459l-533.75-535.41-87.743-327.28 329.499 88.257 533.163 533.201c17.107 17.084 26.527 39.76 26.527 63.848-0.001 24.091-9.408 46.754-26.487 63.81zM223.285 34.851l-59.694 59.69 29.093 108.405 139.068-139.067-108.467-29.028zM382.804 86.432l-166.831 166.83 392.68 394.19 167.583-167.549-393.433-393.47zM894 597.685l-52.15-52.168-167.662 167.556 52.303 52.237c6.804 6.834 16.632 10.753 26.961 10.753 10.342 0 20.197-3.923 27.038-10.763l113.547-113.584c7.248-7.248 11.239-16.84 11.239-27.006 0-10.171-4.003-19.765-11.277-27.024z"  horiz-adv-x="1024" />

    
    <glyph glyph-name="shuaxin" unicode="&#59004;" d="M1020.444 435.2l-185.6 230.4c-19.2 25.6-57.6 25.6-76.8 0l-185.6-230.4c-12.8-19.2 0-44.8 19.2-44.8h70.4c0-134.4 0-307.2-243.2-448-6.4-6.4 0-12.8 6.4-12.8 454.4 70.4 492.8 377.6 492.8 460.8h76.8c25.6-0 38.4 25.6 25.6 44.8v0 0zM438.044 377.6h-76.8c0 134.4 0 307.2 243.2 448 6.4 6.4 0 12.8-6.4 12.8-454.4-70.4-492.8-377.6-492.8-460.8h-76.8c-25.6 0-38.4-25.6-19.2-44.8l185.6-230.4c19.2-25.6 57.6-25.6 76.8 0l185.6 230.4c12.8 19.2-0 44.8-19.2 44.8v0 0z"  horiz-adv-x="1027" />

    
    <glyph glyph-name="chakanrizhi" unicode="&#59110;" d="M849.5 552.75L568.25 552.75 568.25 777.75 624.5 777.75 624.5 609 849.5 609ZM757.20821768 171.29273964000004l163.83065097-163.83065097-35.7969375-35.7969375-163.83065097 163.83065097 35.7969375 35.7969375ZM665.45 91.5c-73.125 0-135 61.875-135 135s61.875 135 135 135 135-61.875 135-135C794.825 153.375 738.575 91.5 665.45 91.5zM665.45 305.25c-45 0-78.75-33.75-78.75-78.75s33.75-78.75 78.75-78.75 78.75 33.75 78.75 78.75S704.825 305.25 665.45 305.25zM624.5-66L226.7-66C159.2-66 118.25-4.125 118.25 69L118.25 720.43125C118.25 785.9625 159.2 834 226.7 834l388.125 0L905.75 614.625 905.75 271.5l-56.25 0L849.5 592.125 597.95 777.75l-371.25 0C187.325 777.75 174.5 748.10625 174.5 716.71875L174.5 63.375C174.5 24 187.325-9.75 226.7-9.75L624.5-9.75 624.5-66zM230.75 665.25l225 0 0-56.25-225 0 0 56.25ZM230.75 552.75l281.25 0 0-56.25-281.25 0 0 56.25ZM230.75 440.25l337.5 0 0-56.25-337.5 0 0 56.25Z"  horiz-adv-x="1024" />

    
    <glyph glyph-name="zhongzhi" unicode="&#59140;" d="M512-66c-247.5 0-450 202.5-450 450s202.5 450 450 450 450-202.5 450-450S759.5-66 512-66zM512 783.375C292.625 783.375 112.625 603.375 112.625 384s180-399.375 399.375-399.375 399.375 180 399.375 399.375S731.375 783.375 512 783.375zM343.25 552.75l337.5 0 0-337.5-337.5 0 0 337.5Z"  horiz-adv-x="1024" />

    
    <glyph glyph-name="pingzhangbarrier1" unicode="&#59115;" d="M938.96704 657.88928l-0.64512 0-82.30912 0L821.76 657.88928l-80.18944 0-34.2528 0-65.25952 0-51.5584 0-66.08896 0-51.5584 0L358.41024 657.88928l-3.7376 0L316.6208 657.88928l-0.64512 0c-20.89984 0-39.13728-11.4176-48.92672-28.3136-13.83424 39.66976-51.46624 68.17792-95.8464 68.17792-56.10496 0-101.5808-45.47584-101.5808-101.5808l0-205.74208c0-26.25536 10.04544-50.11456 26.40896-68.1472L63.1808 322.28352l0-195.44064L28.45696 126.84288l0-56.576 290.60096 0 0 56.576-39.86432 0L279.1936 322.28352l-32.83968 0c16.36352 18.03264 26.40896 41.89184 26.40896 68.1472L272.76288 561.19296c3.7888-4.49536 8.192-8.46848 13.19936-11.61216l0.18432 0.27648c8.8064-5.65248 19.2512-8.98048 30.47424-8.98048l15.08352 0 62.88384 0 51.5584 0 66.0992 0 51.5584 0 65.25952 0 51.5584 0 62.88384 0 51.5584 0 66.08896 0 51.5584 0 25.61024 0 0.64512 0c31.19104 0 56.56576 25.38496 56.56576 56.576l0 3.85024C995.54304 632.51456 970.15808 657.88928 938.96704 657.88928zM291.87072 558.39744c-8.91904 5.67296-15.69792 14.32576-19.0976 24.51456L272.77312 596.1728c0 5.2224-0.52224 10.31168-1.28 15.32928 4.6592 20.6336 23.11168 36.096 45.12768 36.096l31.17056 0 3.72736 0L291.87072 558.39744zM401.46944 551.168l-62.89408 0 64.50176 96.43008 62.88384 0L401.46944 551.168zM519.1168 551.168l-66.08896 0 64.49152 96.43008 66.0992 0L519.1168 551.168zM635.94496 551.168 570.6752 551.168l64.50176 96.43008 65.25952 0L635.94496 551.168zM750.37696 551.168l-62.88384 0 64.50176 96.43008 62.88384 0L750.37696 551.168zM868.0448 551.168l-66.0992 0 64.50176 96.43008 66.08896 0L868.0448 551.168zM984.61696 597.4528c0-25.52832-20.76672-46.29504-46.29504-46.29504l-18.71872 0 53.72928 80.34304c-8.48896 9.8304-21.02272 16.08704-35.01056 16.08704l0.64512 0c13.79328 0 26.15296-6.0928 34.63168-15.68768l-0.26624-0.4096c7.0144-8.11008 11.29472-18.65728 11.29472-30.19776L984.6272 597.4528z"  horiz-adv-x="1024" />

    
    <glyph glyph-name="duihaocheckmark17" unicode="&#59248;" d="M704.20625 544.734375L441.6875 282.21562500000005l-121.865625 121.89375c-10.715625 10.715625-28.125 10.715625-38.840625 0-10.715625-10.715625-10.715625-28.125 0-38.840625l137.953125-137.953125c0.928125-1.321875 1.490625-2.840625 2.671875-4.021875 5.540625-5.540625 12.825-8.1 20.08125-7.903125 7.25625-0.16875 14.56875 2.3625 20.109375 7.903125 1.18125 1.18125 1.74375 2.7 2.671875 4.021875l278.578125 278.578125c10.715625 10.715625 10.715625 28.125 0 38.840625C732.303125 555.45 714.921875 555.45 704.20625 544.734375zM512 834C263.459375 834 62 632.540625 62 384c0-248.540625 201.459375-450 450-450 248.5125 0 450 201.459375 450 450C962 632.540625 760.540625 834 512 834zM512-9.75C294.5375-9.75 118.25 166.53750000000002 118.25 384 118.25 601.4625 294.5375 777.75 512 777.75c217.4625 0 393.75-176.2875 393.75-393.75C905.75 166.53750000000002 729.4625-9.75 512-9.75z"  horiz-adv-x="1024" />

    
    <glyph glyph-name="shu1" unicode="&#58917;" d="M821.375 710.25c-11.25 0-28.125-11.25-28.125-28.125L793.25 46.5c0-28.125-16.875-56.25-45-56.25l-95.625 0L292.625-9.75C258.875-9.75 230.75 18.375 230.75 46.5l0 56.25C230.75 130.875 258.875 159 287 159l438.75 0c11.25 0 11.25 5.625 11.25 16.875L737 721.5c0 56.25-28.125 112.5-90 112.5L292.625 834C236.375 834 174.5 783.375 174.5 721.5l0-613.125 0-56.25L174.5 46.5c0 0 0 0 0-5.625 0-5.625 0-5.625 0-11.25 5.625-50.625 56.25-90 101.25-95.625 0 0 5.625 0 5.625 0 0 0 0 0 5.625 0l5.625 0 360 0 95.625 0c56.25 0 101.25 50.625 101.25 112.5L849.5 682.125C849.5 699 832.625 710.25 821.375 710.25zM292.625 777.75l360 0C663.875 777.75 680.75 760.875 680.75 721.5l0-506.25L287 215.25c-22.5 0-56.25-16.875-56.25-28.125L230.75 721.5C230.75 749.625 264.5 777.75 292.625 777.75zM725.75 102.75L298.25 102.75c-11.25 0-22.5-11.25-22.5-28.125S287 46.5 298.25 46.5l421.875 0c11.25 0 22.5 11.25 22.5 28.125S737 102.75 725.75 102.75z"  horiz-adv-x="1024" />

    
    <glyph glyph-name="yonghu" unicode="&#58962;" d="M779.02446817 570.89884717c0-145.28920957-117.78381914-263.10115283-263.10115284-263.10115283s-263.10115283 117.78381914-263.10115283 263.10115283c0 145.28920957 117.78381914 263.10115283 263.10115283 263.10115283s263.10115283-117.78381914 263.10115283-263.10115283zM733.0696543 295.42308018000006c-61.31058398-48.4016124-137.30195918-75.28827217-217.14633897-75.28827217-80.77247578 0-157.49507813 27.50539043-219.08690332 76.83509883-162.33242695-59.5950126-234.83641113-267.8541293-234.83641113-362.96990684l903.26239805 0c0 94.27205391-73.06646661 301.06871631-232.19274375 361.39495606z"  horiz-adv-x="1028" />

    
    <glyph glyph-name="diqiuquanqiu" unicode="&#59244;" d="M503.33333333 846.66666666C254.75333333 846.66666666 53.33333333 645.24666666 53.33333333 396.66666666S254.75333333-53.33333333999997 503.33333333-53.33333333999997 953.33333333 148.08666666 953.33333333 396.66666666 751.91333333 846.66666666 503.33333333 846.66666666zM891.17333333 426.66666666l-118.86 0c-5.16 129.9-43.08 244.68-100.44 321.3C794.09333333 689.22666666 880.19333333 568.56666666 891.17333333 426.66666666zM711.83333333 426.66666666L533.33333333 426.66666666 533.33333333 782.22666666C629.75333333 756.54666666 704.27333333 609.18666666 711.83333333 426.66666666zM473.33333333 782.22666666L473.33333333 426.66666666 294.83333333 426.66666666C302.39333333 609.18666666 376.91333333 756.54666666 473.33333333 782.22666666zM334.85333333 747.96666666C277.43333333 671.34666666 239.57333333 556.56666666 234.41333333 426.66666666L115.49333333 426.66666666C126.47333333 568.56666666 212.57333333 689.22666666 334.85333333 747.96666666zM115.49333333 366.66666666000003l118.86 0c5.16-129.9 43.08-244.68 100.44-321.3C212.57333333 104.10666665999997 126.47333333 224.76666666000006 115.49333333 366.66666666000003zM294.83333333 366.66666666000003L473.33333333 366.66666666000003l0-355.56C376.91333333 36.78666666000004 302.39333333 184.14666666000005 294.83333333 366.66666666000003zM533.33333333 11.106666659999973L533.33333333 366.66666666000003l178.5 0C704.27333333 184.14666666000005 629.75333333 36.78666666000004 533.33333333 11.106666659999973zM671.81333333 45.366666659999964c57.42 76.62 95.28 191.4 100.44 321.3l118.86 0C880.19333333 224.76666666000006 794.09333333 104.10666665999997 671.81333333 45.366666659999964z"  horiz-adv-x="1024" />

    
    <glyph glyph-name="shijianzhongbiao" unicode="&#59408;" d="M742 426.66666666L532 426.66666666 532 636.6666666599999C532 653.46666666 518.8 666.66666666 502 666.66666666 485.2 666.66666666 472 653.46666666 472 636.6666666599999l0-240C472 379.86666665999996 485.2 366.66666666000003 502 366.66666666000003l240 0C758.8 366.66666666000003 772 379.86666665999996 772 396.66666666 772 413.46666666 758.8 426.66666666 742 426.66666666zM502 846.66666666C253.6 846.66666666 52 645.06666666 52 396.66666666 52 148.26666666000006 253.6-53.33333333999997 502-53.33333333999997c248.4 0 450 201.6 450 450C952 645.06666666 750.4 846.66666666 502 846.66666666zM502 6.666666660000033C286.6 6.666666660000033 112 181.26666666000006 112 396.66666666 112 612.06666666 286.6 786.66666666 502 786.66666666 717.4 786.66666666 892 612.06666666 892 396.66666666 892 181.26666666000006 717.4 6.666666660000033 502 6.666666660000033z"  horiz-adv-x="1024" />

    
    <glyph glyph-name="yanjing" unicode="&#58923;" d="M512 686.596759c-201.731514 0-374.009206-125.476783-443.808922-302.596759 69.798692-177.119977 242.077408-302.596759 443.808922-302.596759 201.933105 0 374.010229 125.476783 443.808922 302.596759C886.009206 561.119977 713.933105 686.596759 512 686.596759zM512 182.268486c-111.355157 0-201.731514 90.375334-201.731514 201.731514s90.375334 201.731514 201.731514 201.731514 201.731514-90.375334 201.731514-201.731514S623.355157 182.268486 512 182.268486zM512 505.038704c-66.772776 0-121.038704-54.265928-121.038704-121.038704s54.265928-121.038704 121.038704-121.038704 121.038704 54.265928 121.038704 121.038704S578.772776 505.038704 512 505.038704z"  horiz-adv-x="1024" />

    
    <glyph glyph-name="dengchutuichuguanbi" unicode="&#59462;" d="M762.06079999 744.6549333400001c-15.63306667 10.17173333-36.864 5.80266667-47.17226666-10.03520001-10.17173333-15.83786667-5.7344-37.00053333 10.10346666-47.24053334C832.03413333 617.8154666600001 895.99999999 500.05546666 895.99999999 372.32853334000004c0-206.848-168.00426667-375.12533333-374.44266666-375.12533335s-374.44266667 168.27733333-374.44266667 375.12533335c0 127.65866667 64.03413333 245.48693333 171.14453333 314.98239999 15.83786667 10.24 20.34346667 31.47093333 10.10346667 47.3088C317.98613333 750.52586666 296.89173333 755.03146666 281.12213333 744.7232 154.41919999 662.4618666700001 78.77973333 523.26613333 78.77973333 372.32853334000004 78.77973333 127.72906665999994 277.36746666-71.20000000000005 521.55733333-71.20000000000005S964.26666666 127.72906665999994 964.26666666 372.32853334000004C964.26666666 523.3343999900001 888.69546666 662.53013333 762.06079999 744.6549333400001zM521.55733333 342.49599999c18.8416 0 34.13333333 15.63306667 34.13333333 35.0208l0 406.18666667c0 19.31946667-15.29173333 34.95253333-34.13333333 34.95253333s-34.13333333-15.63306667-34.13333334-34.95253333l0-406.18666667C487.42399999 358.12906666000003 502.64746666 342.49599999 521.55733333 342.49599999z"  horiz-adv-x="1024" />

    
    <glyph glyph-name="geren1" unicode="&#58914;" d="M795.666618 372.54306399999996L795.666618 372.54306399999996c-19.308765 0-34.675754-16.526395-34.675754-35.871999l0-314.844711L262.986623 21.826354000000038 262.986623 336.671065c0 19.345604-15.388479 35.871999-34.180474 35.871999-19.039635 0-34.901905-16.526395-34.901905-35.871999l0-350.71364c0-20.09671 15.863293-35.871999 34.901905-35.871999l566.859445 0c19.039635 0 34.181497 15.775288 34.181497 35.871999L829.847092 336.671065C829.848115 356.016669 814.70523 372.54306399999996 795.666618 372.54306399999996L795.666618 372.54306399999996zM948.974259 377.635035L948.974259 377.635035 536.885783 806.687882l-0.720408 0.539282c-13.181207 14.249539-35.149545 14.249539-48.353264 0L75.024717 377.635035c-13.428847-13.967106-13.428847-36.642548 0-50.634214 13.407358-14.227026 35.127032-14.227026 48.556902 0l388.407124 404.660296 388.655787-404.660296c13.157671-14.227026 35.149545-14.227026 48.330752 0C962.403107 340.992487 962.403107 363.66792899999996 948.974259 377.635035L948.974259 377.635035z"  horiz-adv-x="1024" />

    
    <glyph glyph-name="tuichu" unicode="&#58963;" d="M516.608-73.30702222000002c-59.1872 0-116.66773333 11.5712-170.73493334 34.5088-52.25813333 22.05013333-99.1232 53.6576-139.40053333 93.93493333-40.27733333 40.27733333-71.8848 87.21066667-94.0032 139.43466667C89.6 248.63857778 77.99466666 306.08497778000003 77.99466666 365.30631111c0 70.8608 17.37386667 141.2096 50.21013334 203.53706667 31.744 60.2112 77.85813333 113.08373333 133.39306666 152.8832 15.42826667 11.0592 36.864 7.4752 47.88906667-7.91893334 11.02506667-15.39413333 7.50933333-36.79573333-7.91893333-47.78666666C254.63466666 632.29724444 215.68853333 587.71911111 188.928 536.89457778c-28.09173333-53.28213333-42.32533333-111.0016-42.32533334-171.58826667 0-98.85013333 38.5024-191.7952 108.40746667-261.66613333 69.87093333-69.90506667 162.78186667-108.40746667 261.59786667-108.40746667 98.78186667 0 191.72693333 38.5024 261.632 108.40746667 69.90506667 69.87093333 108.37333333 162.816 108.37333333 261.66613333 0 60.5184-14.19946667 118.34026667-42.32533333 171.58826667-26.76053333 50.7904-65.7408 95.40266667-112.67413334 129.05813333-15.39413333 10.99093333-18.97813333 32.39253333-7.91893333 47.78666667 11.0592 15.39413333 32.4608 19.01226667 47.85493333 7.91893333 55.56906667-39.79946667 101.75146667-92.672 133.46133334-152.8832 32.8704-62.32746667 50.24426667-132.67626667 50.24426666-203.53706667 0-59.22133333-11.60533333-116.66773333-34.5088-170.76906666-22.08426667-52.224-53.72586667-99.15733333-94.0032-139.43466667-40.27733333-40.27733333-87.1424-71.85066667-139.40053333-94.0032C633.2416-61.76995555999997 575.7952-73.30702222000002 516.608-73.30702222000002L516.608-73.30702222000002zM526.91626666 402.64817778c-18.944 0-34.304 15.29173333-34.304 34.26986666L492.61226666 843.17297778c0 18.90986667 15.36 34.304 34.304 34.304s34.33813333-15.39413333 34.33813334-34.304l0-406.25493334C561.2544 417.93991111 545.86026666 402.64817778 526.91626666 402.64817778L526.91626666 402.64817778zM526.91626666 402.64817778"  horiz-adv-x="1024" />

    
    <glyph glyph-name="jiaoseguanli" unicode="&#60002;" d="M758.71177666 364.26611660000003c-43.31984062-29.19501474-95.14794287-46.15592783-150.92432313-46.15592783-55.60955156 0-107.2708251 16.84969453-150.4238379 45.82227041-116.89127753-57.16661924-197.63634727-178.67348964-197.63634727-319.31004639 0-148.81116006 697.1769501-146.75360713 697.1769501 0C956.84860918 185.59262694999995 875.93671162 307.26632607 758.71177666 364.26611660000003L758.71177666 364.26611660000003 758.71177666 364.26611660000003zM373.44880214 595.82429004c0 131.51658955 104.87961474 238.17570997 234.33865137 238.17570996 129.45903662 0 234.33865137-106.60351026 234.33865138-238.17570996 0-131.51658955-104.87961474-238.06449141-234.33865138-238.06449141C478.32841602 357.75979865 373.44880214 464.30769961 373.44880214 595.82429004L373.44880214 595.82429004 373.44880214 595.82429004 373.44880214 595.82429004zM218.40937138 32.277092580000044c0-5.44973643 0.83414355-10.62142471 2.44682052-15.73750284C132.82627167 30.831244340000012 67.09578154 59.02528682000002 67.09578154 101.51098477000005c0 121.72930839 69.84559687 226.88697129 171.05498086 276.37947246 35.31206513-23.74527833 77.35288623-38.09254307 122.67467138-39.59400059C273.85209424 265.61477168 218.40937138 155.50785937 218.40937138 32.277092580000044L218.40937138 32.277092580000044 218.40937138 32.277092580000044zM334.46650625 595.82429004c0 60.44758242 19.0184669 116.39079141 51.32761612 161.99062383C380.12194795 758.3154 374.50538369 758.5378379900001 368.83320928 758.5378379900001c-106.54790097 0-192.90953495-87.75187295-192.90953495-196.02367031s86.30602471-196.02367031 192.85392567-196.02367031c23.96771719 0 46.93446211 4.44876416 68.06609122 12.62336835C374.44977354 429.99660674 334.46650625 508.12802636 334.46650625 595.82429004L334.46650625 595.82429004zM334.46650625 595.82429004"  horiz-adv-x="1024" />

    
    <glyph glyph-name="statistics-b" unicode="&#58995;" d="M1019.904 445.44l-483.328-106.496 417.792-208.896c45.056 73.728 69.632 159.744 69.632 253.952 0 20.48 0 40.96-4.096 61.44zM1007.616 506.88c-49.152 204.8-221.184 360.448-434.176 385.024l-126.976-507.904 561.152 122.88zM737.28-74.752c73.728 36.864 139.264 90.112 188.416 159.744l-417.792 208.896 229.376-368.64zM512 896c-282.624 0-512-229.376-512-512s229.376-512 512-512c61.44 0 118.784 12.288 172.032 28.672l-299.008 483.328 126.976 512z"  horiz-adv-x="1024" />

    
    <glyph glyph-name="banshou" unicode="&#58972;" d="M941.98866 693.214481c33.767058-83.243913 17.682731-182.610014-48.573275-250.288416-72.960709-74.535577-183.230138-86.150102-268.901333-36.776601l-61.929468-69.124334 44.180222-45.316092 26.403347 26.985608c13.512758 13.796214 35.396161 13.796214 48.907896 0L896.310318 97.6339c13.499455-13.796214 13.499455-36.145222 0-49.941436l-97.80249-99.908454c-13.499455-13.796214-35.382858-13.796214-48.895617 0L535.378965 168.844755c-13.499455 13.782911-13.499455 36.144198 0 49.942459l24.118304 24.633027-42.125423 43.147706-296.296263-330.671165c-27.005051-27.594475-70.790276-27.594475-97.795327 0l-24.447808 24.982998c-27.01119 27.592428-27.01119 72.313979 0 99.909477l337.51606 288.774963L212.168726 599.170594l-70.770833 0.026606L59.50372 733.776292l65.966411 67.483974 134.729517-84.212984 0.916882-70.830185 226.750327-232.56373 65.983807 56.45171c-64.48671 89.820702-57.768705 216.301348 21.727861 297.504788 65.933665 67.354014 162.638147 84.070744 243.892753 50.210565L674.171008 671.447734 796.401864 546.568563 941.98866 693.214481zM180.004165 45.574221c-13.513782 13.795191-35.403325 13.795191-48.90892 0-13.491269-13.797237-13.491269-36.171828 0-49.968042 13.505595-13.795191 35.395138-13.795191 48.90892 0C193.503621 9.402393 193.503621 31.776983 180.004165 45.574221z"  horiz-adv-x="1024" />

    
    <glyph glyph-name="sanjiaoright" unicode="&#59063;" d="M755.974268 384 268.025732 749.024292l0-730.048584L755.974268 384"  horiz-adv-x="1024" />

    
    <glyph glyph-name="tongji9" unicode="&#59092;" d="M98.1279 762.03176667L63.978496 762.03176667 63.978496-67.91816532999997l899.108864 0 0 33.284096-864.386 1.7295L98.1279 762.03176667zM548.1165 727.45026667c0 19.0996-15.4849 34.5815-34.5815 34.5815L409.791488 762.03176667c-19.1027 0-34.5846-15.4819-34.5846-34.5815l0-691.62496 172.909568 0L548.116456 727.45028267zM340.6254 519.9591666700001c0 19.0996-15.4788 34.5846-34.5774 34.5846L202.303488 554.54376667c-19.1027 0-34.5846-15.486-34.5846-34.5846l0-484.133888 172.906496 0L340.625384 519.95921067zM755.6004 312.47526667c0 19.0996-15.4819 34.5815-34.5774 34.5815L617.278464 347.05676667c-19.0996 0-34.5815-15.4819-34.5815-34.5815l0-276.649984 172.9024 0L755.599364 312.47530667zM928.51 139.56986667L824.766464 139.56986667c-19.0996 0-34.5815-15.4819-34.5815-34.5846l0-69.158912 172.9024 0L963.087364 104.98423466999998C963.0874 124.08696667000004 947.6055 139.56986667 928.51 139.56986667z"  horiz-adv-x="1024" />

    
    <glyph glyph-name="busdaba" unicode="&#59179;" d="M112.23987999 662.59670156c0 44.23388344 10.650675 79.73613187 31.95202406 106.60269844 21.30134906 26.86656656 50.18290875 47.4003 86.45277375 61.60119938C268.64167936 845.00149969 312.01199405 854.11694156 361.04347843 858.05097469 409.97901061 861.98500781 462.08095936 864 517.34932561 864c55.26836625 0 107.370315-2.01499219 156.40179938-5.94902531 48.93553219-3.93403313 92.40179906-13.049475 130.30284843-27.25037438 36.36581719-14.20089938 65.15142469-34.73463281 86.45277375-61.60119937 21.30134906-26.86656656 31.95202406-62.36881594 31.95202407-106.60269844l0-504.61169438c0-12.66566719-1.15142437-24.08395781-3.55022532-34.35082499-2.39880094-10.26686625-5.94902531-20.14992469-10.650675-29.64917532C903.55622218 84.58170938 897.99100467 75.85007530999997 891.65817061 67.98200906c-6.33283313-7.86806625-13.43328375-14.96851594-21.30134906-21.30134906l0-92.40179906c0-14.20089938-4.31784094-26.09895094-13.049475-35.50224844C848.67166374-90.81859030999999 836.3898053-95.52023999999994 820.6536728-95.52023999999994L770.8545728-95.52023999999994C755.1184403-95.52023999999994 742.45277405-90.81859030999999 732.95352343-81.31934062000005 723.4542728-71.82009000000005 718.75262405-60.01799061999998 718.75262405-45.72113906000004L718.75262405 6.380809689999978 315.94602718 6.380809689999978l0-52.10194875c0-14.20089938-4.70164875-26.09895094-14.20089938-35.50224844C292.24587718-90.81859030999999 279.67616218-95.52023999999994 263.84407749-95.52023999999994L214.14092967-95.52023999999994c-15.83208375 0-28.01799094 4.70164875-36.74962499 14.20089938-8.63568187 9.49925063-13.049475 21.30134906-13.049475 35.50224843L164.34182874 46.68065999999999c-7.86806625 6.33283313-14.96851594 13.43328375-21.30134906 21.30134906C136.70764655 75.85007530999997 131.23838124 84.58170938 126.44077936 93.98500780999996 121.73913061 103.48425750000001 118.1889053 113.36731594000003 115.7901053 123.63418311999999 113.39130436 133.90104937 112.23987999 145.31934 112.23987999 157.98500719000003L112.23987999 662.59670156zM820.6536728 662.59670156L214.14092967 662.59670156l1e-8-253.50524718 606.51274406 0L820.6536728 662.59670156zM289.94302842 105.88305844000001c9.49925063 0 18.99850031 2.39880094 28.40179876 7.10044968C327.8440778 117.68515780999996 335.71214405 123.25037438000004 342.04497717 129.58320844000002 349.91304343 135.91604156000005 355.86206874 143.78410781000002 359.79610186 153.28335844000003 363.73013499 162.68665688 365.74512717 172.18590749999998 365.74512717 181.68515719000004c0 11.03448281-2.01499219 20.91754125-5.94902531 29.64917531-3.93403313 8.63568187-9.88305844 16.98350813-17.75112468 24.85157437-6.33283313 6.33283313-14.20089938 11.41829063-23.70015 15.35232375C308.84557749 255.47226375000002 299.44227905 257.48725593999995 289.94302842 257.48725593999995c-9.49925063 0-18.99850031-2.01499219-28.40179874-5.94902531-9.49925063-3.93403313-17.36731594-9.11544188-23.70015-15.35232375C229.87706124 228.31784062999998 224.02398811 219.97001531 219.9940028 211.33433249999996c-3.93403313-8.63568187-5.94902531-18.51874031-5.94902531-29.64917531 0-9.49925063 2.01499219-18.99850031 5.94902531-28.40179875 3.93403313-9.49925063 9.88305844-17.36731594 17.75112469-23.70015C244.07796061 123.25037438000004 252.04197905 117.68515780999996 261.44527749 112.98350813000002 270.94452811 108.28185938000001 280.4437778 105.88305844000001 289.94302842 105.88305844000001zM744.85157405 105.88305844000001c9.49925063 0 18.99850031 2.39880094 28.40179875 7.10044968C782.75262343 117.68515780999996 790.62068968 123.25037438000004 796.9535228 129.58320844000002 804.82158905 135.91604156000005 810.77061436 143.78410781000002 814.70464749 153.28335844000003 818.63868061 162.68665688 820.6536728 172.18590749999998 820.6536728 181.68515719000004c0 11.03448281-2.01499219 20.91754125-5.94902531 29.64917531C810.77061436 219.97001531 804.82158905 228.31784062999998 796.9535228 236.18590687999995 790.62068968 242.51874094000004 782.75262343 247.60419750000005 773.25337374 251.53823063000004 763.75412311 255.47226375000002 754.25487249 257.48725593999995 744.85157405 257.48725593999995c-9.49925063 0-18.99850031-2.01499219-28.40179875-5.94902531-9.49925063-3.93403313-17.36731594-9.11544188-23.70015-15.35232375C684.78560686 228.31784062999998 678.83658155 219.97001531 674.90254842 211.33433249999996c-3.93403313-8.63568187-5.94902531-18.51874031-5.94902531-29.64917531 0-9.49925063 2.01499219-18.99850031 5.94902532-28.40179875 3.93403313-9.49925063 9.88305844-17.36731594 17.75112468-23.70015C698.98650717 123.25037438000004 706.95052467 117.68515780999996 716.35382311 112.98350813000002 725.85307374 108.28185938000001 735.35232343 105.88305844000001 744.85157405 105.88305844000001z"  horiz-adv-x="1024" />

    
    <glyph glyph-name="quanxianguankong" unicode="&#59005;" d="M840.380494 743.236757L248.894162 743.236757c-85.932138 0-169.384805-70.800509-169.384805-153.332201l0-388.532991c0-82.530668 83.452667-148.868539 169.384805-148.868539L840.380494 52.503026999999975c85.975117 0 131.451868 66.335824 131.451868 148.868539L971.832362 589.9045570000001C971.832362 672.436248 926.354588 743.236757 840.380494 743.236757zM553.947879 343.46070199999997c5.716188-7.887644 13.225209-13.554714 22.51376-16.945951 2.155083-1.24434 4.000104-2.494821 5.548366-3.712555 3.406586-2.806929 5.729491-6.361895 6.965645-10.679223 0.624217-3.722788 0.459464-8.201799-0.464581-13.468756-0.918929-5.238304-2.467191-10.573823-4.624321-16.008602-2.173502-5.403057-4.825912-10.277064-7.888667-14.626115-3.095501-4.313236-6.506181-7.408737-10.228969-9.28855-3.703345-1.841951-6.966669-2.76395-9.746992-2.76395-2.783393 0-5.878894 0.590448-9.270131 1.845021-3.098571 0.918929-6.970762 1.77646-11.595083 2.568499-4.663206 0.757247-9.371438 0.921999-14.164604 0.459464-4.806469-0.459464-9.582239-1.480724-14.391778-3.02694-4.77577-1.549286-8.893554-4.184299-12.285814-7.873318-7.426133-7.739265-11.775184-16.566304-13.010315-26.482141-1.236154-9.878998 0.163729-19.333324 4.185322-28.291346 3.095501-6.194072 2.617617-12.385075-1.399883-18.577101-1.845021-2.471284-4.79419-5.037736-8.812713-7.641027-4.018523-2.631944-8.43102-5.039783-13.239536-7.213285-4.77577-2.14178-9.815553-3.853771-15.086603-5.104251-5.239328-1.219781-9.882068-1.843998-13.919011-1.843998-2.781346 0-5.417383 1.086751-7.888667 3.25923-2.485611 2.174526-4.180206 4.480035-5.103228 6.952342l-0.459464 0c-3.393283 9.582239-9.205663 17.84953-17.424858 24.833595-8.184403 6.949272-17.686824 10.440793-28.523637 10.440793-10.506285 0-20.025079-3.491521-28.556383-10.440793-8.496511-6.983041-14.458293-15.084557-17.853623-24.373107-1.549286-3.722788-3.885494-6.42227-6.966669-8.134261-3.093455-1.680269-6.503111-2.535753-10.226922-2.535753-4.313236 0-9.188266 0.788969-14.591323 2.335185-5.434779 1.550309-10.833743 3.459798-16.254196 5.798053-5.417383 2.305509-10.293437 5.008061-14.624069 8.103562-4.330632 3.094478-7.573489 6.193049-9.746992 9.286504-1.549286 2.173502-2.388397 4.744048-2.553149 7.643074-0.149403 2.963495 1.003863 7.049556 3.490497 12.31856 3.394307 7.115048 4.711302 15.251356 3.921309 24.37106-0.75827 9.124821-4.693906 17.557888-11.82328 25.297153-4.317329 4.644787-9.587356 7.643074-15.777335 9.024537-6.175653 1.417279-12.05557 1.944282-17.622356 1.647523-6.488785-0.329505-13.159718-1.581008-19.961634-3.722788-4.348028-1.25355-8.662287-0.921999-13.010315 0.923022-3.39226 1.217734-6.55223 4.116761-9.501398 8.594749-2.948145 4.479011-5.584182 9.419534-7.888667 14.854313-2.340301 5.402033-4.098341 10.969842-5.334495 16.699334-1.25355 5.730515-1.549286 10.440793-0.921999 14.164604 0.921999 6.783497 4.016477 11.132548 9.28855 12.977569 9.255805 3.729951 17.622356 9.839089 25.047466 18.35402 7.429203 8.498558 11.149944 18.017352 11.149944 28.523637 0 10.836813-3.721765 20.274766-11.149944 28.341488-7.42511 8.020674-15.791661 13.899568-25.047466 17.622356-2.798742 0.921999-5.121648 3.180436-6.983041 6.737448-1.845021 3.540639-2.781346 7.179516-2.781346 10.901281 0 4.0175 0.608867 8.496511 1.858324 13.45443 1.254573 4.940522 2.867304 9.733689 4.875031 14.377452 2.00875 4.65809 4.330632 8.90788 6.949272 12.761652 2.635013 3.888564 5.501294 6.737448 8.596795 8.595772 2.470261 1.549286 4.874007 2.157129 7.196912 1.862417 2.321882-0.313132 4.857635-0.921999 7.656377-1.862417 9.273201-3.703345 18.956747-4.874007 29.000498-3.473101 10.063193 1.381463 18.956747 5.796006 26.696012 13.20679 3.721765 3.721765 6.40692 8.283664 8.101515 13.701047 1.713015 5.420453 2.797719 10.754948 3.261277 16.025998 0.459464 5.253654 0.459464 10.045797 0 14.377452-0.463558 4.329609-0.857531 7.443529-1.153266 9.287527-0.626263 1.859347-1.168616 4.018523-1.630127 6.488785-0.476861 2.468215-0.228197 4.644787 0.694825 6.503111 1.859347 4.329609 5.185093 8.119935 9.979282 11.363815 4.79112 3.244904 9.979282 5.962805 15.563464 8.120958 5.566786 2.173502 10.966773 3.802606 16.236799 4.872984 5.252631 1.088798 9.437953 1.63115 12.518105 1.63115 4.018523 0 7.212262-1.318018 9.516748-3.953032 2.321882-2.617617 3.953032-5.334495 4.876054-8.116865 3.408633-8.351202 8.974395-15.694447 16.699334-22.052249 7.756661-6.340405 16.879436-9.501398 27.405163-9.501398 10.80202 0 20.422122 3.012613 28.770254 9.038864 8.351202 6.043646 14.228049 13.68672 17.639752 22.991644 1.232061 2.469238 3.158946 5.022387 5.796006 7.638981 2.63399 2.636037 5.337565 3.953032 8.119935 3.953032 4.331655 0 9.042957-0.626263 14.146185-1.858324 5.121648-1.235131 10.146081-2.931772 15.102976-5.107321 4.940522-2.158153 9.503445-4.939499 13.684674-8.348132 4.183276-3.411703 7.510044-7.116071 9.981329-11.133571 1.546216-2.488681 2.00875-5.189186 1.399883-8.137331-0.626263-2.930749-1.25355-5.022387-1.862417-6.240121-4.018523-8.991792-5.272074-18.430768-3.722788-28.341488 1.550309-9.884115 6.02625-18.544355 13.473873-25.972535 7.40669-7.426133 16.532535-11.528568 27.369348-12.302187 10.837836-0.788969 20.880563 1.003863 30.18651 5.335519 2.472308 1.550309 5.483898 2.157129 9.024537 1.862417 3.575432-0.313132 6.588045-1.698688 9.057283-4.183276 4.643764-4.330632 8.747221-10.901281 12.304234-19.730367 3.539616-8.806573 5.962805-17.717524 7.18054-26.678616 0.626263-5.266957-0.214894-9.371438-2.536776-12.301164-2.322905-2.930749-4.711302-4.875031-7.179516-5.79703-9.619078-3.426029-17.819854-9.371438-24.606421-17.86795-6.816243-8.514931-10.211573-18.180058-10.211573-29.015847C545.367457 360.53865900000005 548.234761 351.349369 553.947879 343.46070199999997zM884.851335 211.11753399999998L683.403277 211.11753399999998l0 71.631434 201.447035 0L884.850311 211.11753399999998zM884.851335 354.380402L683.403277 354.380402l0 71.631434 201.447035 0L884.850311 354.380402zM884.851335 497.64327L683.403277 497.64327l0 58.328453 201.447035 0L884.850311 497.64327z"  horiz-adv-x="1024" />

    
    <glyph glyph-name="zanting" unicode="&#58979;" d="M686.480358 776.439974c0 32.377408 26.325575 58.644655 58.644655 58.644655 32.386618 0 58.645678-26.420743 58.645678-58.644655l0-781.930779c0-32.376385-26.325575-58.644655-58.645678-58.644655-32.385595 0-58.644655 26.419719-58.644655 58.644655L686.480358 776.439974zM217.321072 776.439974c0 32.377408 26.325575 58.644655 58.645678 58.644655 32.385595 0 58.644655-26.420743 58.644655-58.644655l0-781.930779c0-32.376385-26.325575-58.644655-58.644655-58.644655-32.385595 0-58.645678 26.419719-58.645678 58.644655L217.321072 776.439974z"  horiz-adv-x="1024" />

    
    <glyph glyph-name="mima" unicode="&#58919;" d="M813.60063565 455.08739788l-496.28981162 0.83086348c-0.2008582 66.17616328-18.19138886 168.73421748 38.93199521 230.98523906 34.74936562 37.92858925 93.3044168 76.97561308 155.7854956 76.97561309 92.30278008 0 161.31396533-68.81032705 194.7174917-153.97954102 9.74029922-24.55160537 18.3064166-37.78612998 38.96119512-38.50284903 51.76568848-1.54669746 48.61477969 52.45409268 38.93199522 77.004813C736.36753379 771.35688041 645.81230937 840.88392562 512.02831484 840.88392562c-90.9277418 0-141.0317042-18.44887588-194.71749169-77.00481299-82.16165039-89.46598886-78.09316347-234.10694795-77.89230528-307.96085216l-28.96252383-0.83086347c-27.07162471 0-48.92978232-21.39892734-48.92978232-47.72640146l0-404.10294522c0-26.46993427 21.91567237-47.81311612 48.92978232-47.81311611l603.08801016 0c27.0424248 0 48.92978232 21.37149667 48.92978232 47.81311611L862.4737874 407.36099642C862.53130214 433.71678538 840.61562979 455.08739788 813.60063565 455.08739788L813.60063565 455.08739788 813.60063565 455.08739788 813.60063565 455.08739788zM785.8414918 71.26759886000002c0-10.65699053-3.78091318-19.79471513-11.45953917-27.27248204-7.59191133-7.5335124-16.7871498-11.31531065-27.55916982-11.31531064L278.57968701 32.6798053c-10.77202002 0-19.96725849 3.72428349-27.52997079 11.31531065-7.62022617 7.53439658-11.48785401 16.61549151-11.48785401 27.27248203L239.56186221 341.242347c0 21.22726817 17.47555488 38.50196396 39.0178248 38.50196396l468.24397999 0c21.51484013 0 39.01782481-17.2746958 39.0178248-38.50196396L785.8414918 71.26759886000002 785.8414918 71.26759886000002 785.8414918 71.26759886000002 785.8414918 71.26759886000002z"  horiz-adv-x="1024" />

    
    <glyph glyph-name="yidu" unicode="&#59187;" d="M935.372985 28.847258c0-41.926902-34.746362-75.888388-76.269058-75.888388L166.220231-47.04113c-41.526789 0-77.594239 33.961486-77.594239 75.888388L88.625992 530.223293c0.683569-0.352017 1.416256-0.898463 2.12643-1.357927-0.074701 4.852518 1.862417 9.658987 6.073322 12.665461L498.877633 829.249737c3.957125 2.823302 8.705266 3.224438 12.993942 1.914606 4.295839 1.308809 9.04705 0.908696 12.998035-1.914606l402.045749-287.718911c4.309142-3.081175 6.249331-8.04728 6.064113-13.017478 0.807389 0.589424 1.63115 1.211595 2.393513 1.709945L935.372985 28.847258zM905.131217 494.757546 624.098589 276.049383l281.032628-218.73784L905.131217 494.757546zM166.220231-16.61619l692.883697 0c21.794375 0 40.676421 15.534811 45.066405 36.266995L599.416444 256.840902l-73.611531-57.288774c-2.735297-2.156106-5.973038-3.169179-9.187243-3.169179-1.468444 0-2.862187 0.550539-4.273327 0.977257-1.413186-0.426719-2.800789-0.977257-4.272303-0.977257-3.214205 0-6.447852 1.013073-9.187243 3.169179l-73.621764 57.295937L120.016933 19.266042C124.823402-1.267621 144.562978-16.61619 166.220231-16.61619zM118.86776 56.780447 400.587026 276.049383 118.86776 495.291712 118.86776 56.780447zM511.875668 801.247986 128.0417 526.579299l384.306736-299.107285 383.844202 298.758338L511.875668 801.247986z"  horiz-adv-x="1024" />

    
    <glyph glyph-name="suo" unicode="&#58924;" d="M823.371 449.501l-68.717 0 0 159.816c0 133.843-108.783 242.683-242.621 242.683-133.843 0-242.746-108.84-242.746-242.683l0-159.816-68.659 0c-33.106 0-59.937-26.828-59.937-59.937l0-437.563c0-33.168 26.832-60 59.937-60l622.805 0c33.111 0 59.88 26.832 59.88 60l0 437.563c-0.005 33.111-26.827 59.937-59.943 59.937zM545.691 159.379l0-95.549c0-4.268-3.532-7.868-7.867-7.868l-51.523 0c-4.388 0-7.925 3.6-7.925 7.868l0 95.549c-24.206 12.379-40.972 37.195-40.972 66.283 0 41.155 33.413 74.631 74.573 74.631 41.217 0 74.635-33.475 74.635-74.631 0.057-29.088-16.709-53.904-40.92-66.283zM661.544 449.501l-299.026 0 0 155.856c0 82.44 67.132 149.573 149.572 149.573s149.453-67.133 149.453-149.573l0-155.856z"  horiz-adv-x="1024" />

    
    <glyph glyph-name="yaochi" unicode="&#59083;" d="M893.456828 165.61166167M491.889987 536.72695767M568.154951 535.67295267M953.576067 107.22692667000001L587.612095 478.12221167c35.753295 95.363951 15.47239 200.659089-55.477522 271.613094C483.524458 798.34542067 419.484933 825.12636667 350.739223 825.12636667c-68.750827 0-133.084041-26.779923-181.694155-75.391061C120.428813 701.12416867 93.803409 636.49214867 93.803409 567.73518267c0-68.74571 26.849508-133.378753 75.465762-181.988868 49.374524-49.384757 116.001991-75.93546 183.428659-75.924203 24.37106 0 48.836265 3.697205 72.655763 10.80816l110.324688-110.550839c3.227508-3.233648 7.235798-5.191232 11.417027-5.929036 1.566682-0.551562 3.195785-0.981351 4.92108-1.156336l52.467979-5.368264 5.406127-54.031591c0.988514-9.858532 8.613168-17.759479 18.434861-19.098987l55.110155-7.503904 4.117784-49.835012c0.408299-4.939499 2.517333-9.586332 5.969968-13.144368l109.777219-113.25953c1.425466-1.826602 3.082198-3.461845 5.019317-4.746094 3.852748-3.00852 8.458649-2.309602 13.113669-2.309602 2.12643 0 4.231371 3.330862 6.284123 3.330862l114.27465 0c17.638729 0 18.584264 6.043646 18.584264 23.844058L960.576505 73.80165266999995C960.576505 80.27918166999996 964.219475 96.49960767000005 953.576067 107.22692667000001zM917.597645-19.993569330000014l-88.098477 0L729.638809 80.68441067000003l-4.90266 58.161654c-0.826831 10.015098-8.507768 17.527189-18.46556 18.876929l-55.407937 7.251148-5.462408 54.480822c-1.01512 10.130731-9.021467 18.083867-19.151176 19.10922l-64.974827 6.600325L446.571848 360.09407467000005c-6.060019 6.075369-14.842033 7.682983-22.413476 4.962012l-0.019443 0.048095c-77.515445-27.92091-165.615968-7.91425-224.487797 50.952462-40.515762 40.510646-62.833047 94.383624-62.833047 151.680585 0 57.307194 22.317285 111.170962 62.833047 151.691841s94.385671 62.832024 151.686724 62.832024c57.296961 0 111.165846-22.312168 151.686724-62.833047 58.774615-58.779731 76.608795-146.175197 47.124274-225.605248-1.157359-0.769526-2.26253-1.653663-3.285836-2.670829-8.398274-8.340969-8.445346-21.914102-0.104377-30.30726L921.909857 78.22745267000005c0.25071-0.952698-4.312212-2.605338-4.312212-4.426823L917.597645-19.993569330000014 917.597645-19.993569330000014zM301.221436 700.29733667c-41.36306 0-75.014484-33.655518-75.014484-75.014484s33.650401-75.014484 75.014484-75.014484 75.014484 33.655518 75.014484 75.014484S342.584496 700.29733667 301.221436 700.29733667zM301.221436 593.13466567c-17.727757 0-32.149211 14.421454-32.149211 32.149211s14.421454 32.149211 32.149211 32.149211 32.149211-14.421454 32.149211-32.149211C333.370647 607.55611967 318.949192 593.13466567 301.221436 593.13466567z"  horiz-adv-x="1024" />

    
    <glyph glyph-name="chexingluntan" unicode="&#59100;" d="M1270.06896594 536.27586188C1263.44827625 552.82758656 1243.58620719 566.06896594 1223.72413812 566.06896594l-165.51724125 0L1058.20689687 665.3793103099999c0 19.86206906-13.24137938 33.10344844-33.10344843 33.10344844L528.55172375 698.48275875c-19.86206906 0-33.10344844-13.24137938-33.10344844-33.10344844l0 0c0-19.86206906 13.24137938-33.10344844 33.10344844-33.10344843l463.44827625 0 0-562.75862063L624.55172375 69.51724124999998c-13.24137938 56.27586187-66.20689687 99.31034437-129.10344844 99.31034437s-112.55172375-43.0344825-129.10344843-99.31034437L296.82758656 69.51724124999998l0 297.93103406c0 19.86206906-13.24137938 33.10344844-33.10344843 33.10344844l0 0c-19.86206906 0-33.10344844-13.24137938-33.10344844-33.10344844l0-331.0344825c0-19.86206906 13.24137938-33.10344844 33.10344844-33.10344844l102.62068968 0c13.24137938-56.27586187 66.20689687-99.31034437 129.10344844-99.31034437s112.55172375 43.0344825 129.10344844 99.31034437l374.06896593 0c13.24137938-56.27586187 66.20689687-99.31034437 129.10344844-99.31034437s112.55172375 43.0344825 129.10344844 99.31034437L1323.0344825 3.3103443700000525c19.86206906 0 33.10344844 13.24137938 33.10344844 33.10344844l0 215.17241344C1356.13793094 334.34482780999997 1270.06896594 536.27586188 1270.06896594 536.27586188zM495.44827625-29.793103119999955c-36.41379281 0-66.20689687 29.79310312-66.20689687 66.20689687s29.79310312 66.20689687 66.20689687 66.20689688 66.20689687-29.79310312 66.20689687-66.20689688S531.86206906-29.793103119999955 495.44827625-29.793103119999955zM1124.41379281-29.793103119999955c-36.41379281 0-66.20689687 29.79310312-66.20689687 66.20689687s29.79310312 66.20689687 66.20689687 66.20689688 66.20689687-29.79310312 66.20689688-66.20689688S1160.82758656-29.793103119999955 1124.41379281-29.793103119999955zM1289.93103406 69.51724124999998l-36.41379281 0c-13.24137938 56.27586187-66.20689687 99.31034437-129.10344844 99.31034437-23.17241344 0-46.34482781-6.62068969-66.20689687-16.55172374L1058.20689687 499.86206906l148.9655175 0c0 0 23.17241344-16.55172375 26.48275875-33.10344843l-59.58620718 0c-19.86206906 0-33.10344844-13.24137938-33.10344844-33.10344844l0-132.41379281c0-19.86206906 13.24137938-33.10344844 33.10344844-33.10344844L1289.93103406 268.13793094000005C1289.93103406 268.13793094000005 1289.93103406 69.51724124999998 1289.93103406 69.51724124999998zM32 830.89655156c0 19.86206906 16.55172375 33.10344844 33.10344844 33.10344844l331.0344825 0c19.86206906 0 33.10344844-13.24137938 33.10344843-33.10344844 0-19.86206906-16.55172375-33.10344844-33.10344843-33.10344843L65.10344844 797.79310312C45.24137938 797.79310312 32 811.0344825 32 830.89655156zM131.31034437 665.3793103099999c0 19.86206906 13.24137938 33.10344844 33.10344844 33.10344844l231.72413813 0c19.86206906 0 33.10344844-13.24137938 33.10344843-33.10344844 0-19.86206906-13.24137938-33.10344844-33.10344843-33.10344844L164.41379281 632.27586188C144.55172375 632.27586188 131.31034437 645.51724125 131.31034437 665.3793103099999zM230.62068969 499.86206906c0 19.86206906 16.55172375 33.10344844 33.10344844 33.10344844l132.41379281 0c16.55172375 0 33.10344844-13.24137938 33.10344844-33.10344844 0-19.86206906-16.55172375-33.10344844-33.10344844-33.10344843L263.72413812 466.75862063C243.86206906 466.75862063 230.62068969 480 230.62068969 499.86206906z"  horiz-adv-x="1413" />

    
    <glyph glyph-name="zhuce" unicode="&#58942;" d="M851.82300875 474.71386458l79.29203531 0L931.11504406-74.66666667000004 58.90265469-74.66666667000004 58.90265469 791.88200583l555.04424812 0 0-79.29203531L138.19468999 712.58997052l0-707.96460188L851.82300875 4.625368640000033 851.82300875 474.71386458zM880.14159312 667.28023552l-79.29203531 79.29203531L364.74336313 304.80236020999996l79.29203531-79.29203532L880.14159312 667.28023552zM257.13274345 117.89970520999998l147.25663686 67.96460156L325.097345 265.15634207999994 257.13274345 117.89970520999998zM953.76991156 786.21828895l-33.98230125 33.98230125c-11.32743375 11.32743375-33.98230125 11.32743375-45.30973406 0l-33.98230125-33.98230125 79.29203531-79.29203531 33.98230125 33.98230125C970.76106219 757.8997045799999 965.09734531 774.8908552 953.76991156 786.21828895z"  horiz-adv-x="1024" />

    
    <glyph glyph-name="jinzhi1" unicode="&#58980;" d="M308.67264 353.239416 715.340663 353.239416 715.340663 416.783661 308.659337 416.796964ZM826.527998 699.547723c-173.702134 173.708274-455.342606 173.708274-629.058043 0-173.703157-173.708274-173.703157-455.350792 0-629.051903 173.715437-173.701111 455.355909-173.701111 629.058043 0C1000.231155 244.19693 1000.231155 525.838426 826.527998 699.547723zM799.572066 97.449705c-158.834518-158.821215-416.322917-158.808936-575.133899 0-158.822239 158.808936-158.822239 416.312684 0 575.134923 158.809959 158.815075 416.310637 158.815075 575.133899 0C958.383048 513.762389 958.383048 256.259664 799.572066 97.449705z"  horiz-adv-x="1024" />

    
    <glyph glyph-name="shezhi" unicode="&#58888;" d="M-48.606208 12.183552M1041.337344 12.183552M45.560832 43.327488M403.534848 385.104896c0 36.704256 12.394496 67.21024 37.6576 92.474368 25.264128 25.264128 55.771136 37.658624 92.475392 37.658624 36.703232 0 67.211264-12.394496 92.475392-37.658624 25.265152-25.264128 37.6576-55.770112 37.6576-92.474368 0-36.70528-12.393472-67.689472-37.6576-92.952576-25.264128-25.263104-55.77216-37.656576-92.475392-37.656576-36.704256 0-67.331072 12.274688-92.475392 37.656576C415.809536 317.773824 403.534848 348.8768 403.534848 385.104896zM219.547648 300.256256c7.626752-27.169792 19.067904-53.865472 32.89088-78.651392l-85.801984-105.347072 97.241088-97.241088 105.335808 85.801984c24.787968-13.824 51.958784-25.264128 79.128576-33.368064l14.30016-134.421504 140.142592 0 14.30016 134.421504c27.170816 8.103936 52.912128 19.544064 79.127552 33.368064l104.869888-85.801984 98.195456 97.241088-86.278144 105.347072c13.346816 24.78592 25.263104 51.480576 33.364992 78.651392l134.424576 14.777344L980.789248 455.176192l-134.424576 14.30016c-8.101888 27.170816-20.018176 52.434944-33.364992 78.651392l86.278144 105.346048-98.195456 98.195456-104.869888-86.278144c-26.692608 13.34784-51.956736 25.264128-79.127552 33.36704L602.785792 833.181696 462.6432 833.181696l-14.30016-134.423552c-28.12416-8.102912-54.340608-20.020224-79.128576-33.36704l-105.335808 86.278144-97.241088-98.195456 85.801984-105.346048c-13.34784-26.217472-24.787968-51.480576-32.89088-78.651392L84.647936 455.176192l0-140.142592L219.547648 300.256256zM1021.78304 43.327488"  horiz-adv-x="1064" />

    
    <glyph glyph-name="tongji" unicode="&#59007;" d="M918.025138 33.582095l-811.443431 0c-23.205442 0-41.972623 18.789948-41.972623 41.971927l0 671.513994c0 23.180955 18.767181 41.959647 41.972623 41.959647 23.158368 0 41.972623-18.778692 41.972623-41.959647l0-531.617803 0-97.925287 769.470807 0c23.158368 0 41.973647-18.789948 41.973647-41.970904C959.997761 52.373067 941.182483 33.582095 918.025138 33.582095M820.072302 159.49583l-83.945247 0c-23.158368 0-41.972623 18.778692-41.972623 41.959647L694.154432 495.24157c0 23.193235 18.814255 41.970904 41.972623 41.970904l83.945247 0c23.206465 0 41.973647-18.778692 41.973647-41.970904l0-293.786093C862.044925 178.274522 843.278767 159.49583 820.072302 159.49583M582.242104 159.49583l-83.945247 0c-23.181905 0-41.973647 18.778692-41.973647 41.959647L456.32321 663.125185c0 23.180955 18.791742 41.970904 41.973647 41.970904l83.945247 0c23.180882 0 41.972623-18.789948 41.972623-41.970904l0-461.669708C624.214727 178.274522 605.424009 159.49583 582.242104 159.49583M344.411906 159.49583l-83.945247 0c-23.205442 0-41.972623 18.778692-41.972623 41.959647l0 83.941807c0 23.179932 18.767181 41.970904 41.972623 41.970904l83.945247 0c23.181905 0 41.973647-18.789948 41.973647-41.970904l0-83.941807C386.384529 178.274522 367.593811 159.49583 344.411906 159.49583"  horiz-adv-x="1024" />

    
    <glyph glyph-name="tianjia" unicode="&#58912;" d="M511.83999969-72.07619020000004C259.35999969-72.07619020000004 54.69714313 132.63238073000002 54.69714313 385.06666636 54.69714313 637.54666636 259.35999969 842.20952386 511.83999969 842.20952386 764.31999969 842.20952386 968.98285719 637.54666636 968.98285719 385.06666636 968.98285719 132.63238073000002 764.31999969-72.07619020000004 511.83999969-72.07619020000004ZM509.28000031 756.95238136C304.16 756.95238136 145.02857188 590.6438094800001 145.02857188 385.52380917 145.02857188 180.40380978999997 304.16 19.809523549999994 509.28000031 19.809523549999994 714.44571406 19.809523549999994 880.75428594 180.40380978999997 880.75428594 385.52380917 880.75428594 590.6438094800001 714.44571406 756.95238136 509.28000031 756.95238136ZM695.0628575 339.80952417000003C695.0628575 339.80952417000003 557.87428531 339.80952417000003 557.87428531 339.80952417000003 557.87428531 339.80952417000003 557.87428531 202.62095197999997 557.87428531 202.62095197999997 557.87428531 177.38666666999995 537.44 156.95238136 512.20571469 156.95238136 512.20571469 156.95238136 512.11428594 156.95238136 512.11428594 156.95238136 486.87999969 156.95238136 466.44571438 177.38666666999995 466.44571438 202.62095197999997 466.44571438 202.62095197999997 466.44571438 339.80952417000003 466.44571438 339.80952417000003 466.44571438 339.80952417000003 329.25714312 339.80952417000003 329.25714312 339.80952417000003 304.02285688 339.80952417000003 283.58857156 360.24380948 283.58857156 385.47809479 283.58857156 385.47809479 283.58857156 385.56952355 283.58857156 385.56952355 283.58857156 410.8038098 304.02285688 431.23809511 329.25714312 431.23809511 329.25714312 431.23809511 466.44571438 431.23809511 466.44571438 431.23809511 466.44571438 431.23809511 466.44571438 568.42666636 466.44571438 568.42666636 466.44571438 593.66095261 486.87999969 614.09523792 512.11428594 614.09523792 512.11428594 614.09523792 512.20571469 614.09523792 512.20571469 614.09523792 537.44 614.09523792 557.87428531 593.66095261 557.87428531 568.42666636 557.87428531 568.42666636 557.87428531 431.23809511 557.87428531 431.23809511 557.87428531 431.23809511 695.0628575 431.23809511 695.0628575 431.23809511 720.29714281 431.23809511 740.73142812 410.8038098 740.73142812 385.56952355 740.73142812 385.56952355 740.73142812 385.47809479 740.73142812 385.47809479 740.73142812 360.24380948 720.29714281 339.80952417000003 695.0628575 339.80952417000003Z"  horiz-adv-x="1024" />

    
    <glyph glyph-name="kongzhizhongxin" unicode="&#58945;" d="M901.8284675 805.91591896L122.16681219 805.91591896c-35.88303375 0-64.970625-30.69323719-64.970625-68.55383062l0-548.444805c0-37.87192031 29.08664719-68.56043813 64.970625-68.56043813l292.37772281 0 0-40.83590062-123.81694969 0c-7.65348656 0-13.91465813-6.26211562-13.91465812-13.91465813l0-41.68167281c0-7.65348656 6.26211562-13.91465813 13.91465812-13.91465812l442.54483032 0c7.65348656 0 13.91465813 6.26211562 13.91465812 13.91465812L747.18707281 65.60723053000004c0 7.65348656-6.26211562 13.91465813-13.91465812 13.91465812l-123.81694969 0 0 40.83590063 292.37205844 0c35.88303375 0 64.97534438 30.69323719 64.97534437 68.56043812L966.80286875 737.36208834C966.80381281 775.22740115 937.71055812 805.91591896 901.8284675 805.91591896zM901.8284675 209.26396490000002c0-11.83137656-9.09111094-21.41711344-20.29854188-21.41711343l-739.05985312 0c-11.21215031 0-20.30326125 9.59045719-20.30326125 21.41711343L122.16681219 714.87454397c0 11.83137656 9.09583125 21.41711344 20.30326125 21.41711343l739.057965 0c11.20743 0 20.29854188-9.59045719 20.29854187-21.41711344l0-505.61057812L901.8284675 209.26396490000002zM290.5690025 393.59990709l-54.69392156 0c-6.72747844 0-12.185355-5.744835-12.185355-12.83289937l0-111.26156907c0-7.083345 5.45221219-12.8347875 12.185355-12.8347875l54.69392156 0c6.72559125 0 12.1787475 5.74577813 12.1787475 12.8347875L302.74775 380.76700678C302.74680594 387.85035271 297.29459375 393.59990709 290.5690025 393.59990709zM448.93519531 462.06689428l-54.69392156 0c-6.72747844 0-12.18441094-5.74105875-12.18441094-12.82912407L382.05686281 269.49883021999995c0-7.083345 5.45787562-12.82912406 12.18441094-12.82912407l54.69392156 0c6.72747844 0 12.185355 5.74105875 12.185355 12.82912406L461.12055031 449.23682709C461.12055031 456.32111615 455.66267469 462.06689428 448.93519531 462.06689428zM603.74933187 536.1456214699999L549.05446625 536.1456214699999c-6.72559125 0-12.1787475-5.74577813-12.1787475-12.82912407L536.87571875 269.49883021999995c0-7.083345 5.45221219-12.82912406 12.1787475-12.82912407l54.69392156 0c6.72747844 0 12.18441094 5.74105875 12.18441094 12.82912406L615.93279875 523.3164974C615.93374281 530.39984334 610.48058656 536.1456214699999 603.74933187 536.1456214699999zM771.00368844 590.44119928l-54.69392157 0c-6.72747844 0-12.185355-5.744835-12.185355-12.83289938l0-308.10286219c0-7.09372875 5.45787562-12.8347875 12.185355-12.8347875l54.69392157 0c6.72747844 0 12.1787475 5.74577813 12.1787475 12.8347875l0 308.10286219C783.18243594 584.7010845899999 777.73116687 590.44119928 771.00368844 590.44119928z"  horiz-adv-x="1024" />

    
    <glyph glyph-name="saomiao" unicode="&#58932;" d="M708.775642 764.693442l179.428555 0 0-179.428555c0-18.584264 15.069207-33.643238 33.643238-33.643238s33.643238 15.057951 33.643238 33.643238L955.490673 764.693442c0 43.280736-24.00574 67.285452-67.285452 67.285452L708.775642 831.978894c-18.574031 0-33.643238-15.057951-33.643238-33.643238S690.202635 764.693442 708.775642 764.693442zM91.989087 551.621649c18.584264 0 33.643238 15.069207 33.643238 33.643238L125.632325 764.693442l187.838086 0c18.584264 0 33.643238 15.069207 33.643238 33.643238s-15.057951 33.643238-33.643238 33.643238L134.040832 831.979918c-43.280736 0-75.694983-24.00574-75.694983-67.285452l0-179.428555C58.34585 566.690856 73.4038 551.621649 91.989087 551.621649zM921.848459 215.19234c-18.574031 0-33.643238-15.057951-33.643238-33.643238l0-179.429579L708.775642 2.119523c-18.574031 0-33.643238-15.057951-33.643238-33.643238s15.069207-33.643238 33.643238-33.643238l179.428555 0c43.280736 0 67.285452 24.00574 67.285452 67.285452L955.48965 181.549102C955.490673 200.133366 940.421466 215.19234 921.848459 215.19234zM313.470411 2.120546l-187.838086 0L125.632325 181.549102c0 18.574031-15.057951 33.643238-33.643238 33.643238s-33.643238-15.069207-33.643238-33.643238l0-179.429579c0-43.280736 32.41527-67.285452 75.694983-67.285452l179.429579 0c18.584264 0 33.643238 15.069207 33.643238 33.643238S332.054675 2.120546 313.470411 2.120546zM955.490673 405.835308 58.34585 405.835308c-18.574031 0-33.643238-15.057951-33.643238-33.643238 0-18.584264 15.069207-33.643238 33.643238-33.643238l897.145847 0c18.574031 0 33.643238 15.057951 33.643238 33.643238C989.133911 390.777357 974.064704 405.835308 955.490673 405.835308z"  horiz-adv-x="1024" />

    
    <glyph glyph-name="fanhui" unicode="&#59028;" d="M511.213557 830.62506c-245.875761 0-445.212719-199.317535-445.212719-445.184245s199.336958-445.184245 445.212719-445.184245c245.898275 0 445.222953 199.316511 445.222953 445.184245S757.111832 830.62506 511.213557 830.62506zM511.236071-15.129326c-220.774055 0-400.391095 180.345438-400.391095 400.919089 0 220.570581 179.61704 400.004253 400.391095 400.004253 220.776102 0 400.391095-179.433672 400.391095-400.004253C911.627165 165.216111 732.012172-15.129326 511.236071-15.129326zM711.648568 407.562649 348.187037 407.562649l132.332216 141.90494c8.681062 8.691963 8.681062 22.772656 0 31.465642-8.703576 8.692986-22.786893 8.692986-31.467955 0L267.533901 384.831948l178.72468-197.47149c4.356393-4.347005 10.049279-6.541997 15.733977-6.541997 5.692886 0 11.387818 2.194992 15.733977 6.541997 8.694366 8.67252 8.694366 22.750143 0 31.469736l-130.961953 144.224776 364.885008 0c12.290411 0 22.254752 9.954723 22.254752 22.255887C733.90332 397.589506 723.937956 407.562649 711.648568 407.562649z"  horiz-adv-x="1024" />

    
    <glyph glyph-name="shangsheng" unicode="&#59191;" d="M445.155 616.993v-645.749c0-19.241 15.436-34.839 35.136-34.839h68.976c19.405 0 35.136 15.579 35.136 34.839v656.499l206.75-203.214c6.875-6.859 18.191-6.685 25.279 0.399l48.781 48.782c7.086 7.086 7.278 18.402 0.4 25.262l-277.982 273.247c-0.976 2.13-2.348 4.137-4.111 5.902l-53.198 53.216c-4.188 4.188-9.724 6.164-15.116 5.902-4.957 0.251-10.070-1.559-13.931-5.41l-38.706-38.731-298.166-286.89c-7.517-7.499-7.308-19.838 0.423-27.567l53.198-53.216c7.751-7.732 20.085-7.924 27.567-0.422l199.555 191.993z"  horiz-adv-x="1024" />

    
    <glyph glyph-name="xiajiang" unicode="&#59192;" d="M584.407 156.674v645.749c0 19.241-15.436 34.839-35.141 34.839h-68.976c-19.405 0-35.136-15.579-35.136-34.839v-656.499l-206.751 203.214c-6.877 6.859-18.191 6.685-25.279-0.399l-48.781-48.782c-7.086-7.086-7.278-18.402-0.4-25.262l277.984-273.247c0.976-2.13 2.348-4.137 4.111-5.902l53.198-53.216c4.188-4.188 9.724-6.164 15.116-5.902 4.964-0.251 10.070 1.559 13.931 5.41l38.706 38.731 298.166 286.89c7.517 7.499 7.308 19.838-0.423 27.567l-53.198 53.216c-7.751 7.732-20.085 7.924-27.567 0.422l-199.555-191.993z"  horiz-adv-x="1024" />

    
    <glyph glyph-name="ai23" unicode="&#59018;" d="M256.079818 735.634616 256.079818 32.366408 808.649815 384.016373Z"  horiz-adv-x="1024" />

    
    <glyph glyph-name="yanzhengma" unicode="&#58951;" d="M936.71799715 634.4579317c-0.26184885 0-0.52369631 0-0.91646958 0 0.13092442 1.9638622 0.26184885 3.92772438 0.39277188 5.76066355L936.19430083 640.21859525c-37.83708358 2.61848292-75.80509296 9.68838794-108.40521068 20.16232103-10.60485751 3.14218063-21.07879062 6.67713313-31.68364813 10.4739331-22.38803207 6.5462087-52.89336319 19.63862474-87.45734309 38.36078127-0.39277188 0.13092442-0.78554515 0.39277188-1.04739401 0.52369632-8.11729902 4.45142208-16.49644549 9.03376721-24.87559196 14.0088856-11.39040268 6.5462087-22.78080534 13.48518929-34.04028362 20.81694314-0.39277188 0.26184885-0.91646958 0.52369631-1.30924146 0.78554515-8.11729902 5.23696723-16.23459665 10.60485751-24.22097123 16.23459667-5.23696723 3.5349525-10.4739331 7.33175386-15.71090035 11.12855382-3.92772438 2.88033178-7.85545018 5.62973914-11.78317455 8.51007089-28.67239195 21.47156389-57.08293643 45.56161071-83.66054314 71.4845953-26.57760532-25.92298459-54.85722538-50.01303141-83.66054312-71.4845953-3.92772438-3.01125619-7.85545018-5.62973914-11.78317456-8.51007089-5.23696723-3.79680135-10.4739331-7.59360133-15.71090034-11.12855382-7.9863746-5.62973914-16.10367222-10.99762941-24.22097122-16.23459667-0.39277188-0.26184885-0.91646958-0.52369631-1.30924149-0.78554515-11.25947824-7.33175386-22.64988093-14.27073446-34.04028359-20.81694314-8.51007091-4.97511839-16.75829296-9.68838794-24.87559198-14.0088856-0.39277188-0.13092442-0.78554515-0.39277188-1.047394-0.52369632-34.56397991-18.59123212-65.06931102-31.68364814-87.4573431-38.36078127-10.60485751-3.79680135-21.20971504-7.33175386-31.68364814-10.4739331-32.60011772-10.4739331-70.56812572-17.5438381-108.40521068-20.16232103l-0.13092441 0c0.13092442-1.83293778 0.26184885-3.79680135 0.39277188-5.76066355-0.26184885 0-0.52369631 0-0.91646958 0l-0.13092441 0c1.04739399-16.75829296 2.22571105-38.88447758 3.5349525-62.9745244 0.26184885 0 0.39277188 0 0.65462073 0 6.41528428-89.68305413 24.61374313-217.33411766 52.10781803-292.22274105 1.17831705-3.27310366 2.22571105-6.67713313 3.53495251-9.95023678 0.52369631-1.57109031 1.30924147-2.88033178 1.83293777-4.45142209 19.24585284-48.96563878 42.68127893-94.13447622 69.5207331-134.45911968 65.06931102-99.37144207 150.82464075-170.85603738 248.10129623-202.93245879l0-0.52369631c18.19845885-6.02251101 33.38566288-9.68838794 45.43068628-12.04502341 12.04502341 2.35663547 27.36315049 6.02251101 45.43068628 12.04502341l0 0.52369631c97.27665547 32.07642141 183.03198519 103.5610167 248.10129621 202.93245879 26.83945418 40.45556789 50.27488025 85.49348091 69.52073311 134.45911968 0.52369631 1.57109031 1.30924147 2.88033178 1.83293776 4.45142209 1.17831705 3.27310366 2.22571105 6.67713313 3.53495253 9.95023678 27.4940749 75.0195478 45.69253375 202.53968689 52.10781801 292.22274105 0.26184885 0 0.52369631 0 0.65462073 0C934.62321053 595.57345412 935.80152895 617.69963734 936.71799715 634.4579317L936.71799715 634.4579317zM886.050345 586.40876247c-0.52369631-2.22571105-0.91646958-4.58234651-1.04739399-6.93898059-5.89158797-84.57701133-22.64988093-209.87143938-49.4893351-284.23636643-0.78554515-1.9638622-1.4401659-4.05864881-2.09478662-6.15343545-0.39277188-1.30924147-0.91646958-2.61848292-1.5710903-4.18957324-0.52369631-1.30924147-1.04739399-2.61848292-1.44016589-3.53495251-20.03139801-51.84597056-44.90698859-98.84774577-73.44845749-140.08885882-58.52310231-83.13684544-132.88802938-142.31456987-214.8465578-168.89217516-1.9638622-0.65462073-3.92772438-1.4401659-5.76066352-2.22571105-8.24822206-2.61848292-16.49644549-4.71326955-24.35189568-6.54620871-7.85545018 1.83293778-15.9727478 3.92772438-24.22097122 6.54620871-1.83293778 0.91646958-3.79680135 1.70201474-5.76066355 2.35663547-82.08945282 26.70852976-156.32345547 85.88625418-214.84655778 168.89217517-28.5414689 41.24111305-53.28613646 88.11196383-73.31753307 139.82700996-0.52369631 1.30924147-1.04739399 2.48755851-1.83293778 4.32049767-0.52369631 1.17831705-0.91646958 2.48755851-1.30924146 3.79680135-0.65462073 2.09478662-1.4401659 4.05864881-1.9638622 5.76066355-26.97037859 74.62677453-43.72867155 199.92120258-49.62025952 284.4982153-0.13092442 2.35663547-0.52369631 4.71326955-1.04739399 6.93898059l-0.52369631 9.16469163c25.5302127 3.92772438 50.14395583 9.55746352 72.53198791 16.62736854 10.60485751 3.14218063 21.47156389 6.67713313 32.9928896 10.73578194 26.44668228 7.85545018 59.17772305 21.9952602 94.92002137 40.84833979 0.65462073 0.26184885 1.17831705 0.65462073 1.70201475 0.91646956 8.64099533 4.58234651 17.41291369 9.55746352 26.053909 14.40165888 11.25947824 6.28435986 23.04265281 13.48518929 36.13507022 21.73341134 0.39277188 0.26184885 1.04739399 0.65462073 1.30924148 0.91646958 8.64099533 5.4988147 17.15106623 11.12855382 25.26836385 16.75829297 4.71326955 3.27310366 9.55746352 6.67713313 14.27073446 10.0811612l2.61848292 1.83293778 4.18957325 3.01125618c2.74940736 1.9638622 5.36789028 3.79680135 7.85545015 5.62973914 18.72215653 13.87796119 37.0515398 28.41054448 54.46445351 43.59774713 17.5438381-15.18720403 35.74229695-29.71978594 54.33352905-43.46682409 2.74940736-1.9638622 5.36789028-3.92772438 8.11729903-5.76066355l4.45142208-3.14218061 1.57109031-1.17831705c4.97511839-3.5349525 10.08116121-7.20082943 14.66350633-10.21208563 8.51007091-5.89158797 17.15106623-11.52132709 24.87559198-16.4964455l2.22571105-1.44016587c12.96149298-8.24822206 24.87559198-15.44905149 35.74229695-21.60248694 9.03376721-5.23696723 17.80568695-10.08116121 26.18483343-14.53258192 0.39277188-0.26184885 1.04739399-0.52369631 1.57109033-0.78554515 35.87322137-18.984004 68.73518794-33.25473845 95.31279327-41.11018862 11.52132709-4.05864881 22.25710905-7.59360133 32.07642139-10.4739331 22.91172978-7.20082943 47.78732036-12.96149298 73.4484575-16.88921737L886.050345 586.40876247zM719.5148039 489.52487889L474.16291642 237.88863017000006l-125.68719994 128.82938057c-8.64099533 8.90284278-22.78080534 8.90284278-31.55272371 0-8.64099533-8.90284278-8.64099533-23.43542608 0-32.33826888l141.39810028-144.93305278c4.32049765-4.45142208 10.08116121-6.67713313 15.71090034-6.67713313 5.76066355 0 11.39040268 2.22571105 15.71090034 6.67713313l261.19371363 267.73992095c8.64099533 8.90284278 8.64099533 23.43542608 0 32.33826886C742.29560928 498.4277217 728.28672366 498.4277217 719.5148039 489.52487889z"  horiz-adv-x="1024" />

    
    <glyph glyph-name="filezip" unicode="&#58964;" d="M917.811 666.931c-22.2 30.29-53.166 65.7-87.183 99.697s-69.407 64.963-99.697 87.183c-51.569 37.827-76.595 42.189-90.931 42.189h-496.005c-44.114 0-79.995-35.881-79.995-79.995v-864.010c0-44.114 35.881-79.995 79.995-79.995h736.010c44.114 0 79.995 35.881 79.995 79.995v624.005c0 14.336-4.362 39.342-42.189 90.931v0 0zM785.367 721.367c30.7-30.7 54.804-58.388 72.581-81.367h-153.948v153.948c22.979-17.777 50.688-41.882 81.367-72.581v0 0zM896-48.005c0-8.663-7.332-15.995-15.995-15.995h-736.010c-8.663 0-15.995 7.332-15.995 15.995v864.010c0 8.663 7.332 15.995 15.995 15.995 0 0 495.964 0 496.005 0v-224.010c0-17.674 14.316-32.010 32.010-32.010h224.010v-624.005zM256 832h128v-64h-128v64zM384 768h128v-64h-128v64zM256 704h128v-64h-128v64zM384 640h128v-64h-128v64zM256 576h128v-64h-128v64zM384 512h128v-64h-128v64zM256 448h128v-64h-128v64zM384 384h128v-64h-128v64zM256 48.005c0-26.399 21.606-48.005 48.005-48.005h160.010c26.399 0 48.005 21.606 48.005 48.005v160.010c0 26.399-21.606 48.005-48.005 48.005h-79.995v64h-128v-271.995zM448 128v-64h-128v64h128z"  horiz-adv-x="1024" />

    
    <glyph glyph-name="excelwenjian" unicode="&#59205;" d="M865.16941585 666.49287815c-48.55853446 0-97.01374146 0-145.57095163 0 0-24.22892782 0-48.55721015 0-72.78481365 48.55588454 0 97.01109284 0 145.57095163 0C865.16941585 617.93434241 865.16941585 642.2639490500001 865.16941585 666.49287815zM969.2504806 156.47459941c-0.10067753 180.4002009-0.31528092 360.81100018 0.20400498 541.31320423-0.71931666 17.67824182 0.52988299 37.22564803-10.18568732 52.62009263-15.28051875 10.49831961-34.62656989 9.24911866-52.19883433 9.98168233-104.08238906-0.51928591-208.1634538-0.31528092-312.24319294-0.31528091 0 27.76060299 0 55.42185146 0 83.18510436l-61.76985807 0c-159.5029162-28.17921006-319.11048416-55.5238546-478.72202765-83.28710621 0-242.58469309 0-485.16938619 0-727.75407929 158.66967499-27.76060299 317.45194891-54.38592957 475.92026753-83.18377875l64.5716169 0c0 31.19424796 0 62.38717157 0 93.58274514 107.82469207 0.20400499 215.64276129-0.31528092 323.37074876 0 17.36296091 0.73123937 43.35772695 1.24787535 47.52128697 22.87904933C972.05224071 95.33530317999998 968.73516892 126.21427022 969.2504806 156.47459941zM360.55330228 233.412376c-17.67956742 43.36037558-39.19549126 85.26622221-51.88885327 130.60571378-14.13199663-42.22245055-34.30996466-82.04717932-50.52572776-123.42579028-22.77837179 0.31528092-45.55276935 1.24920096-68.31789414 2.18312099 26.72732973 52.30348739 52.50749238 105.01498478 80.06408909 157.0045156-23.394361 53.55533698-49.08444452 106.06150377-73.20342202 159.30156112 22.87904933 1.35120281 45.74617725 2.70108129 68.62390226 3.94895792 15.49777074-40.65664566 32.44477321-80.78605568 45.23616413-122.49054594 13.72001111 44.18964385 34.20928583 85.7828582 51.77757735 128.52327035 23.49768846 1.66383509 47.10532852 3.11836534 70.7036958 4.26556315-27.7619273-56.87638301-55.62453213-113.75938886-83.90442103-170.41984417 28.5951698-58.23420865 57.80897743-116.04186178 86.50482478-174.27739606C410.56371708 230.09265428000003 385.61414698 231.64786335999997 360.55330228 233.412376zM937.95555511 73.80878097000004c-114.37802799 0-228.75870461 0-343.13010843 0 0 20.79528285 0 41.59189003 0 62.3884972 27.75927738 0 55.42052714 0 83.18245443 0 0 24.2276035 0 48.55721015 0 72.78481364-27.7619273 0-55.42317706 0-83.18245443 0 0 13.82996272 0 27.76060299 0 41.59056441 27.75927738 0 55.42052714 0 83.18245443 0 0 24.2276035 0 48.55853446 0 72.78481366-27.7619273 0-55.42317706 0-83.18245443 0 0 13.82863712 0 27.76325161 0 41.59189002 27.75927738 0 55.42052714 0 83.18245443 0 0 24.2276035 0 48.55721015 0 72.78481366-27.7619273 0-55.42317706 0-83.18245443 0 0 13.82996272 0 27.7619273 0 41.59056441 27.75927738 0 55.42052714 0 83.18245443 0 0 24.22892782 0 48.55721015 0 72.78481366-27.7619273 0-55.42317706 0-83.18245443 0 0 13.82996272 0 27.76325161 0 41.59321433 27.75927738 0 55.42052714 0 83.18245443 0 0 24.2276035 0 48.55588454 0 72.78481366-27.7619273 0-55.42317706 0-83.18245443 0 0 20.79528285 0 41.59056442 0 62.38717157 114.37272945 0 228.75340606 0 343.13010843 0C937.95555511 510.52296016 937.95555511 292.16587056000003 937.95555511 73.80878097000004zM865.16941585 552.11352457c-48.55853446 0-97.01374146 0-145.57095163 0 0-24.2276035 0-48.55588454 0-72.78481367 48.55588454 0 97.01109284 0 145.57095163 0C865.16941585 503.5563157 865.16941585 527.88592107 865.16941585 552.11352457zM865.16941585 437.73682218c-48.55853446 0-97.01374146 0-145.57095163 0 0-24.2276035 0-48.55721015 0-72.78481365 48.55588454 0 97.01109284 0 145.57095163 0C865.16941585 389.17961203 865.16941585 413.50921868 865.16941585 437.73682218zM865.16941585 323.35879420000003c-48.55853446 0-97.01374146 0-145.57095163 0 0-24.22627919 0-48.55721015 0-72.78481367 48.55588454 0 97.01109284 0 145.57095163 0C865.16941585 274.80158405 865.16941585 299.132515 865.16941585 323.35879420000003zM865.16941585 208.98209181000004c-48.55853446 0-97.01374146 0-145.57095163 0 0-24.2276035 0-48.55721015 0-72.78481364 48.55588454 0 97.01109284 0 145.57095163 0C865.16941585 160.42488165999998 865.16941585 184.75448831000006 865.16941585 208.98209181000004z"  horiz-adv-x="1024" />

    
    <glyph glyph-name="cam" unicode="&#58905;" d="M593.81818174 322.63636348m-204.54545479 0a8.7890625 8.7890625 0 1 1 409.0909087 0 8.7890625 8.7890625 0 1 1-409.0909087 0ZM1002.90909131 711.27272695l-184.0909087 0-69.54545478 106.36363652C743.13636347 825.81818174 726.77272695 834 716.54545479 834L471.09090869 834c-12.27272695 0-26.59090869-8.18181826-32.72727304-16.36363653L368.81818174 711.27272695 184.72727305 711.27272695c-67.5 0-122.72727305-55.22727305-122.72727305-122.72727304l0-531.81818174c0-67.5 55.22727305-122.72727305 122.72727305-122.72727305l818.18181826 0c67.5 0 122.72727305 55.22727305 122.72727304 122.72727305L1125.63636347 588.54545479C1125.63636347 656.04545479 1070.40909131 711.27272695 1002.90909131 711.27272695zM593.81818174 56.72727305000001c-147.27272695 0-265.90909131 118.63636348-265.90909131 265.9090913s118.63636348 265.90909131 265.90909131 265.90909131 265.90909131-118.63636348 265.90909131-265.90909131S741.09090869 56.72727305000001 593.81818174 56.72727305000001z"  horiz-adv-x="1211" />

    
    <glyph glyph-name="guanli3" unicode="&#59125;" d="M66.782609-128 66.782609 806.956522 222.608696 806.956522 222.608696 896 400.695652 896 400.695652 806.956522 623.304348 806.956522 623.304348 896 801.391304 896 801.391304 806.956522 957.217391 806.956522 957.217391-128 66.782609-128ZM333.913043 740.173913 333.913043 740.173913 333.913043 806.956522 333.913043 806.956522 333.913043 829.217391 289.391304 829.217391 289.391304 695.652174 333.913043 695.652174 333.913043 740.173913ZM734.608696 829.217391 690.086957 829.217391 690.086957 695.652174 734.608696 695.652174 734.608696 829.217391ZM890.434783 740.173913 801.391304 740.173913 801.391304 628.869565 623.304348 628.869565 623.304348 740.173913 400.695652 740.173913 400.695652 628.869565 222.608696 628.869565 222.608696 740.173913 133.565217 740.173913 133.565217 606.608696 890.434783 606.608696 890.434783 740.173913ZM890.434783 539.826087 133.565217 539.826087 133.565217-61.217391 890.434783-61.217391 890.434783 539.826087ZM467.478261 339.478261 178.086957 339.478261 178.086957 406.26087 467.478261 406.26087 467.478261 339.478261ZM690.086957 139.130435 178.086957 139.130435 178.086957 205.913043 690.086957 205.913043 690.086957 139.130435Z"  horiz-adv-x="1024" />

    
    <glyph glyph-name="webicon03" unicode="&#58989;" d="M909.68215703 649.12143803L114.31784297 649.12143803c-24.3911723 0-44.18690634 19.79573404-44.18690634 44.18690632s19.79573404 44.18690634 44.18690634 44.18690635l795.36431406 0c24.4353592 0 44.18690634-19.79573404 44.18690634-44.18690635S934.11751623 649.12143803 909.68215703 649.12143803zM909.68215703 339.81309366000005L114.31784297 339.81309366000005c-24.3911723 0-44.18690634 19.79573404-44.18690634 44.18690634s19.79573404 44.18690634 44.18690634 44.18690634l795.36431406 0c24.4353592 0 44.18690634-19.79573404 44.18690634-44.18690634S934.11751623 339.81309366000005 909.68215703 339.81309366000005zM909.68215703 30.504749299999958L114.31784297 30.504749299999958c-24.3911723 0-44.18690634 19.79573404-44.18690634 44.18690635s19.79573404 44.18690634 44.18690634 44.18690632l795.36431406 0c24.4353592 0 44.18690634-19.79573404 44.18690634-44.18690632S934.11751623 30.504749299999958 909.68215703 30.504749299999958z"  horiz-adv-x="1024" />

    
    <glyph glyph-name="webicon03-copy" unicode="&#59030;" d="M246.87856197 781.68215703v-795.36569492c0-24.3911723-19.79573404-44.18552549-44.18690632-44.18690632s-44.18552549 19.79573404-44.18690635 44.18690632v795.36569492c0 24.4353592 19.79573404 44.18552549 44.18690635 44.18690634s44.18690634-19.75154713 44.18690632-44.18690634zM556.18690634 781.68215703v-795.36569492c0-24.3911723-19.79573404-44.18552549-44.18690634-44.18690632s-44.18552549 19.79573404-44.18690634 44.18690632v795.36569492c0 24.4353592 19.79573404 44.18552549 44.18690634 44.18690634s44.18690634-19.75154713 44.18690634-44.18690634zM865.4952507 781.68215703v-795.36569492c0-24.3911723-19.79573404-44.18552549-44.18690635-44.18690632s-44.18552549 19.79573404-44.18690632 44.18690632v795.36569492c0 24.4353592 19.79573404 44.18552549 44.18690632 44.18690634s44.18690634-19.75154713 44.18690635-44.18690634z"  horiz-adv-x="1024" />

    
    <glyph glyph-name="jiantou" unicode="&#58915;" d="M746.63786533 720.83242763l-336.67773223-336.6768331 341.10093341-341.10003427-0.06205782-0.02967979c11.17042646-11.54637158 18.04356651-27.26771221 18.04356651-44.58816914 0-35.48723994-28.77239268-64.25873261-64.26143086-64.25873262-17.31955693 0-33.03909932 6.87224092-44.58727002 18.04266738l-0.03057891-0.0314789L274.59920761 337.74975760999996l0.03147892 0.03147891c-12.11118838 11.67318545-19.67326172 28.05108135-19.67326172 46.21786436 0 0.06295693 0 0.09353672 0 0.15649365 0 0.06385693 0 0.09533496 0 0.12681386 0 18.166783 7.56207334 34.57705693 19.67326172 46.25024239l-0.03147891 0.03057891L660.16059717 816.12551924l0.15829277-0.15739365c11.5481707 11.04451172 27.20295615 17.85379482 44.46135527 17.85379482 35.48903818 0 64.26143086-28.77239268 64.26143086-64.26053174C769.04077607 750.07699951 760.34996914 732.63152783 746.63786533 720.83242763z"  horiz-adv-x="1024" />

    
    <glyph glyph-name="shijian" unicode="&#59280;" d="M507.398192-59.662589000000025c-247.033279 0-447.241091 200.233394-447.241091 447.233927 0 247.019976 200.207811 447.233927 447.241091 447.233927 246.974951 0 447.233927-200.213951 447.233927-447.233927C954.632119 140.56978200000003 754.374166-59.662589000000025 507.398192-59.662589000000025zM507.398192 764.915499c-208.417797 0-383.241474-169.003112-383.241474-377.440351 0-208.378911 174.919868-383.343805 383.337665-383.343805 208.430076 0 383.349945 174.96387 383.349945 383.343805C890.844328 595.9123870000001 715.822129 764.915499 507.398192 764.915499zM443.609377 323.585025L443.609377 579.140399l63.883983 0 0-191.671391 191.671391 0 0-63.883983L443.609377 323.585025z"  horiz-adv-x="1024" />

    
    </font>
</defs>
</svg>
